<svg width="24" height="24" viewBox="0 0 24 24" fill="none" xmlns="http://www.w3.org/2000/svg">
<path d="M20.47 7.36999C20.47 7.36999 20.47 7.36999 20.47 7.28999L20.41 7.13999C20.3891 7.10816 20.3657 7.07806 20.34 7.04999C20.3132 7.00765 20.2831 6.96753 20.25 6.92999L20.16 6.85999L20 6.77999L12.5 2.14999C12.3411 2.05066 12.1574 1.99799 11.97 1.99799C11.7826 1.99799 11.5989 2.05066 11.44 2.14999L3.99999 6.77999L3.90999 6.85999L3.81999 6.92999C3.78684 6.96753 3.75675 7.00765 3.72999 7.04999C3.70428 7.07806 3.68088 7.10816 3.65999 7.13999L3.59999 7.28999C3.59999 7.28999 3.59999 7.28999 3.59999 7.36999C3.59016 7.45638 3.59016 7.5436 3.59999 7.62999V16.37C3.59965 16.5399 3.64263 16.7072 3.72486 16.8559C3.8071 17.0046 3.92588 17.1299 4.06999 17.22L11.57 21.85C11.6162 21.8785 11.6669 21.8988 11.72 21.91C11.72 21.91 11.77 21.91 11.8 21.91C11.9692 21.9636 12.1508 21.9636 12.32 21.91C12.32 21.91 12.37 21.91 12.4 21.91C12.4531 21.8988 12.5038 21.8785 12.55 21.85L20 17.22C20.1441 17.1299 20.2629 17.0046 20.3451 16.8559C20.4274 16.7072 20.4703 16.5399 20.47 16.37V7.62999C20.4798 7.5436 20.4798 7.45638 20.47 7.36999ZM11 19.21L5.49999 15.81V9.42999L11 12.82V19.21ZM12 11.09L6.39999 7.62999L12 4.17999L17.6 7.62999L12 11.09ZM18.5 15.81L13 19.21V12.82L18.5 9.42999V15.81Z" fill="black"/>
</svg>
