<svg width="24" height="24" viewBox="0 0 24 24" fill="none" xmlns="http://www.w3.org/2000/svg">
<path fill-rule="evenodd" clip-rule="evenodd" d="M7.82181 0.999924C8.23681 0.999924 8.57181 1.33592 8.57181 1.74992C8.57181 2.07592 8.84881 2.34092 9.18981 2.34092H10.2468C11.8198 2.34592 13.1048 3.60992 13.1118 5.15892L13.1119 5.37693C14.1328 5.38223 15.1602 5.39326 16.1902 5.41002C19.8412 5.41002 22.5002 8.01902 22.5002 11.612V16.262C22.5002 19.852 19.8452 22.46 16.1842 22.463C14.7162 22.487 13.2362 22.5 11.7542 22.5C10.2712 22.5 8.78621 22.487 7.31021 22.463C3.65921 22.463 1.00021 19.854 1.00021 16.262V11.612C1.00021 8.01902 3.65921 5.41002 7.32321 5.41002C8.72789 5.38603 10.1611 5.37379 11.6114 5.37329L11.6118 5.16292C11.6088 4.43892 10.9948 3.84392 10.2438 3.84092H9.18981C8.02281 3.84092 7.07181 2.90292 7.07181 1.74992C7.07181 1.33592 7.40781 0.999924 7.82181 0.999924ZM11.7012 6.87302C10.2252 6.87302 8.76721 6.88602 7.33521 6.91002C4.52821 6.91002 2.50021 8.88802 2.50021 11.612V16.262C2.50021 18.985 4.52821 20.963 7.32321 20.963C10.2702 21.012 13.2412 21.012 16.1652 20.963H16.1782C18.9722 20.963 21.0002 18.985 21.0002 16.262V11.612C21.0002 8.88802 18.9722 6.91002 16.1782 6.91002C14.6742 6.88602 13.1792 6.87302 11.7012 6.87302ZM8.59811 11.3146C9.01211 11.3146 9.34811 11.6506 9.34811 12.0646L9.34721 13.1859L10.5088 13.1865C10.9228 13.1865 11.2588 13.5225 11.2588 13.9365C11.2588 14.3505 10.9228 14.6865 10.5088 14.6865L9.34721 14.6859L9.34811 15.8096C9.34811 16.2236 9.01211 16.5596 8.59811 16.5596C8.18411 16.5596 7.84811 16.2236 7.84811 15.8096L7.84721 14.6859L6.68781 14.6865C6.27381 14.6865 5.93781 14.3505 5.93781 13.9365C5.93781 13.5225 6.27381 13.1865 6.68781 13.1865L7.84721 13.1859L7.84811 12.0646C7.84811 11.6506 8.18411 11.3146 8.59811 11.3146ZM16.9297 15.0029C17.3437 15.0029 17.6797 15.3389 17.6797 15.7529C17.6797 16.1669 17.3437 16.5029 16.9297 16.5029H16.8227C16.4087 16.5029 16.0727 16.1669 16.0727 15.7529C16.0727 15.3389 16.4087 15.0029 16.8227 15.0029H16.9297ZM15.1162 11.4287C15.5302 11.4287 15.8662 11.7647 15.8662 12.1787C15.8662 12.5927 15.5302 12.9287 15.1162 12.9287H15.0092C14.5952 12.9287 14.2592 12.5927 14.2592 12.1787C14.2592 11.7647 14.5952 11.4287 15.0092 11.4287H15.1162Z" fill="black"/>
<path fill-rule="evenodd" clip-rule="evenodd" d="M7.82181 1.24992C7.54589 1.24992 7.32181 1.47399 7.32181 1.74992C7.32181 2.76177 8.15778 3.59092 9.18981 3.59092H10.2438C11.1242 3.59444 11.8582 4.29289 11.8618 5.16189L11.8618 5.16338L11.861 5.6232L11.6115 5.62329C10.1625 5.62379 8.73071 5.63602 7.32748 5.65999L7.32321 5.66006C3.79273 5.66006 1.25021 8.1616 1.25021 11.612V16.262C1.25021 19.7118 3.79305 22.213 7.31021 22.213H7.31428C8.78903 22.237 10.2727 22.25 11.7542 22.25C13.2348 22.25 14.7134 22.237 16.1801 22.2131L16.184 22.213C19.7115 22.2101 22.2502 19.7096 22.2502 16.262V11.612C22.2502 8.16127 19.7073 5.66002 16.1902 5.66002H16.1861C15.1571 5.64327 14.1306 5.63222 13.1106 5.62693L12.8619 5.62564L12.8618 5.16005C12.8618 5.15986 12.8618 5.16025 12.8618 5.16005C12.8551 3.75231 11.6853 2.59569 10.2464 2.59092H9.18981C8.72136 2.59092 8.32181 2.22437 8.32181 1.74992C8.32181 1.47378 8.09853 1.24992 7.82181 1.24992ZM6.82181 1.74992C6.82181 1.19785 7.26974 0.749924 7.82181 0.749924C8.3751 0.749924 8.82181 1.19807 8.82181 1.74992C8.82181 1.92747 8.97627 2.09092 9.18981 2.09092H10.2468C11.9436 2.09632 13.3379 3.45201 13.3615 5.12834C14.3009 5.13406 15.2455 5.14462 16.1922 5.16002C19.9761 5.161 22.7502 7.87745 22.7502 11.612V16.262C22.7502 19.9938 19.9799 22.709 16.1864 22.713C14.7178 22.737 13.237 22.75 11.7542 22.75C10.2704 22.75 8.78473 22.737 7.30813 22.713C3.52436 22.712 0.750214 19.9956 0.750214 16.262V11.612C0.750214 7.87714 3.52465 5.16104 7.32108 5.16002C8.64558 5.13741 9.99534 5.12524 11.3608 5.12349C11.3362 4.56238 10.8501 4.09358 10.2433 4.09092H9.18981C7.88784 4.09092 6.82181 3.04408 6.82181 1.74992ZM7.33311 6.66002C8.76577 6.63602 10.2245 6.62302 11.7012 6.62302C13.18 6.62302 14.6757 6.63602 16.1802 6.66002C19.1053 6.66098 21.2502 8.74472 21.2502 11.612V16.262C21.2502 19.129 19.1043 21.213 16.1782 21.213H16.1674C13.2419 21.262 10.2695 21.262 7.3211 21.213C4.39514 21.212 2.25021 19.1284 2.25021 16.262V11.612C2.25021 8.74431 4.39553 6.66102 7.33311 6.66002ZM11.7012 7.12302C10.2267 7.12302 8.77008 7.13601 7.3394 7.15999L7.33521 7.16006C4.65987 7.16006 2.75021 9.03242 2.75021 11.612V16.262C2.75021 18.841 4.66025 20.713 7.32321 20.713H7.32737C10.2716 20.762 13.2398 20.762 16.161 20.7131L16.1652 20.713L16.1782 20.713C18.8401 20.713 20.7502 18.841 20.7502 16.262V11.612C20.7502 9.03198 18.8401 7.16002 16.1782 7.16002H16.1742C14.6714 7.13604 13.1778 7.12302 11.7012 7.12302ZM8.59811 11.5646C8.32219 11.5646 8.09811 11.7887 8.09811 12.0646L8.09701 13.4358L6.68794 13.4365C6.41201 13.4365 6.18781 13.6606 6.18781 13.9365C6.18781 14.2124 6.41181 14.4365 6.68768 14.4365L8.09701 14.4358L8.09811 15.8094C8.09811 16.0854 8.32219 16.3096 8.59811 16.3096C8.87398 16.3096 9.098 16.0857 9.09811 15.8098L9.09701 14.4358L10.5088 14.4365M7.59811 12.0644C7.59822 11.5124 8.04611 11.0646 8.59811 11.0646C9.15019 11.0646 9.59811 11.5126 9.59811 12.0646L9.59741 12.9361L10.5088 12.9365C10.5088 12.9365 10.5089 12.9365 10.5088 12.9365C11.0608 12.9366 11.5088 13.3845 11.5088 13.9365C11.5088 14.4886 11.0609 14.9365 10.5088 14.9365L9.59741 14.9361L9.59811 15.8094C9.59811 16.3615 9.15019 16.8096 8.59811 16.8096C8.04611 16.8096 7.59822 16.3618 7.59811 15.8098M7.59811 15.8098L7.59741 14.9361L6.68794 14.9365C6.13587 14.9365 5.68781 14.4886 5.68781 13.9365C5.68781 13.3845 6.13567 12.9366 6.68768 12.9365C6.68764 12.9365 6.68773 12.9365 6.68768 12.9365L7.59741 12.9361L7.59811 12.0644M8.59811 11.5646C8.87398 11.5646 9.098 11.7886 9.09811 12.0644L8.59811 11.5646ZM15.0092 11.6787C14.7333 11.6787 14.5092 11.9028 14.5092 12.1787C14.5092 12.4547 14.7333 12.6787 15.0092 12.6787H15.1162C15.3921 12.6787 15.6162 12.4547 15.6162 12.1787C15.6162 11.9028 15.3921 11.6787 15.1162 11.6787H15.0092ZM14.0092 12.1787C14.0092 11.6267 14.4571 11.1787 15.0092 11.1787H15.1162C15.6683 11.1787 16.1162 11.6267 16.1162 12.1787C16.1162 12.7308 15.6683 13.1787 15.1162 13.1787H15.0092C14.4571 13.1787 14.0092 12.7308 14.0092 12.1787ZM16.8227 15.2529C16.5468 15.2529 16.3227 15.477 16.3227 15.7529C16.3227 16.0289 16.5468 16.2529 16.8227 16.2529H16.9297C17.2056 16.2529 17.4297 16.0289 17.4297 15.7529C17.4297 15.477 17.2056 15.2529 16.9297 15.2529H16.8227ZM15.8227 15.7529C15.8227 15.2009 16.2706 14.7529 16.8227 14.7529H16.9297C17.4818 14.7529 17.9297 15.2009 17.9297 15.7529C17.9297 16.305 17.4818 16.7529 16.9297 16.7529H16.8227C16.2706 16.7529 15.8227 16.305 15.8227 15.7529Z" fill="black"/>
</svg>
