<svg width="24" height="24" viewBox="0 0 24 24" fill="none" xmlns="http://www.w3.org/2000/svg">
<path d="M6.29165 12.715L11.2916 17.715C11.3867 17.8061 11.4989 17.8774 11.6216 17.925C11.8651 18.025 12.1382 18.025 12.3816 17.925C12.5044 17.8774 12.6165 17.8061 12.7116 17.715L17.7116 12.715C17.8049 12.6218 17.8788 12.5111 17.9293 12.3893C17.9798 12.2674 18.0057 12.1369 18.0057 12.005C18.0057 11.7387 17.8999 11.4833 17.7116 11.295C17.5233 11.1067 17.2679 11.0009 17.0016 11.0009C16.7353 11.0009 16.4799 11.1067 16.2916 11.295L13.0016 14.595L13.0016 7.00502C13.0016 6.7398 12.8963 6.48545 12.7088 6.29791C12.5212 6.11037 12.2669 6.00502 12.0016 6.00502C11.7364 6.00502 11.4821 6.11037 11.2945 6.29791C11.107 6.48545 11.0016 6.7398 11.0016 7.00502L11.0016 14.595L7.71165 11.295C7.61868 11.2013 7.50808 11.1269 7.38622 11.0761C7.26436 11.0254 7.13366 10.9992 7.00165 10.9992C6.86963 10.9992 6.73893 11.0254 6.61707 11.0761C6.49521 11.1269 6.38461 11.2013 6.29165 11.295C6.19792 11.388 6.12352 11.4986 6.07275 11.6204C6.02199 11.7423 5.99585 11.873 5.99585 12.005C5.99585 12.137 6.02199 12.2677 6.07275 12.3896C6.12352 12.5115 6.19792 12.6221 6.29165 12.715Z" fill="black"/>
</svg>
