<svg width="24" height="24" viewBox="0 0 24 24" fill="none" xmlns="http://www.w3.org/2000/svg">
<path d="M11.285 6.29555L6.28501 11.2914C6.19397 11.3865 6.12261 11.4985 6.07501 11.6212C5.975 11.8644 5.975 12.1373 6.07501 12.3805C6.12261 12.5032 6.19397 12.6152 6.28501 12.7103L11.285 17.7062C11.3783 17.7993 11.4889 17.8732 11.6108 17.9236C11.7326 17.974 11.8632 18 11.995 18C12.2613 18 12.5167 17.8943 12.705 17.7062C12.8933 17.518 12.9991 17.2628 12.9991 16.9967C12.9991 16.7307 12.8933 16.4755 12.705 16.2873L9.40501 13L16.995 13C17.2602 13 17.5146 12.8948 17.7021 12.7074C17.8897 12.52 17.995 12.2659 17.995 12.0009C17.995 11.7359 17.8897 11.4817 17.7021 11.2943C17.5146 11.1069 17.2602 11.0017 16.995 11.0017L9.40501 11.0017L12.705 7.71438C12.7987 7.6215 12.8731 7.51099 12.9239 7.38923C12.9747 7.26747 13.0008 7.13687 13.0008 7.00497C13.0008 6.87307 12.9747 6.74247 12.9239 6.62071C12.8731 6.49895 12.7987 6.38844 12.705 6.29555C12.6121 6.2019 12.5014 6.12757 12.3796 6.07684C12.2577 6.02612 12.127 6 11.995 6C11.863 6 11.7323 6.02612 11.6104 6.07684C11.4886 6.12757 11.378 6.2019 11.285 6.29555Z" fill="black"/>
</svg>
