<svg width="24" height="24" viewBox="0 0 24 24" fill="none" xmlns="http://www.w3.org/2000/svg">
<path d="M12.71 17.7044L17.71 12.7086C17.801 12.6135 17.8724 12.5015 17.92 12.3788C18.02 12.1356 18.02 11.8627 17.92 11.6195C17.8724 11.4968 17.801 11.3848 17.71 11.2897L12.71 6.29385C12.6168 6.20069 12.5061 6.12679 12.3842 6.07637C12.2624 6.02595 12.1319 6 12 6C11.7337 6 11.4783 6.1057 11.29 6.29385C11.1017 6.482 10.9959 6.73718 10.9959 7.00326C10.9959 7.26935 11.1017 7.52453 11.29 7.71268L14.59 11L7 11C6.73478 11 6.48043 11.1052 6.29289 11.2926C6.10535 11.48 6 11.7341 6 11.9991C6 12.2641 6.10535 12.5183 6.29289 12.7057C6.48043 12.8931 6.73478 12.9983 7 12.9983L14.59 12.9983L11.29 16.2856C11.1963 16.3785 11.1219 16.489 11.0711 16.6108C11.0203 16.7325 10.9942 16.8631 10.9942 16.995C10.9942 17.1269 11.0203 17.2575 11.0711 17.3793C11.1219 17.501 11.1963 17.6116 11.29 17.7044C11.383 17.7981 11.4936 17.8724 11.6154 17.9232C11.7373 17.9739 11.868 18 12 18C12.132 18 12.2627 17.9739 12.3846 17.9232C12.5064 17.8724 12.617 17.7981 12.71 17.7044Z" fill="white"/>
</svg>
