<svg width="24" height="24" viewBox="0 0 24 24" fill="none" xmlns="http://www.w3.org/2000/svg">
<path fill-rule="evenodd" clip-rule="evenodd" d="M16.9719 12.887C17.5176 12.9722 17.8909 13.4836 17.8057 14.0292C17.6135 15.2602 17.0352 16.3983 16.1543 17.2792C15.2733 18.1602 14.1352 18.7385 12.9043 18.9307C12.3586 19.0159 11.8472 18.6426 11.762 18.0969C11.6768 17.5512 12.0501 17.0398 12.5958 16.9546C13.4079 16.8278 14.1588 16.4463 14.74 15.865C15.3213 15.2838 15.7028 14.5329 15.8296 13.7207C15.9148 13.1751 16.4262 12.8018 16.9719 12.887Z" fill="black"/>
<path fill-rule="evenodd" clip-rule="evenodd" d="M13.0829 1.03766C13.4767 0.67066 14.0903 0.6812 14.4712 1.06151C17.1895 3.77532 20.875 7.79248 20.875 13.125C20.875 15.4788 19.94 17.7362 18.2756 19.4006C16.6112 21.065 14.3538 22 12 22C9.6462 22 7.38881 21.065 5.72443 19.4006C4.06004 17.7362 3.125 15.4788 3.125 13.125C3.125 10.4994 4.44241 7.802 5.92004 5.57446C6.21868 5.12425 6.82091 4.99264 7.28013 5.27723L7.28024 5.2773C7.28965 5.28313 7.29896 5.28911 7.30817 5.29525L10.0937 7.15228L12.8618 1.33934C12.9158 1.2258 12.9908 1.12348 13.0828 1.03774L13.0829 1.03766ZM14.0515 3.49276L11.4029 9.05493C11.2781 9.31692 11.0457 9.51181 10.7659 9.58898C10.4862 9.66615 10.1867 9.61801 9.9453 9.45704L7.05015 7.52694C5.91373 9.41129 5.125 11.3684 5.125 13.125C5.125 14.9484 5.84933 16.697 7.13864 17.9864C8.42795 19.2757 10.1766 20 12 20C13.8234 20 15.572 19.2757 16.8614 17.9864C18.1507 16.697 18.875 14.9484 18.875 13.125C18.875 9.23487 16.4985 6.06956 14.0515 3.49276Z" fill="black"/>
</svg>
