<svg width="24" height="24" viewBox="0 0 24 24" fill="none" xmlns="http://www.w3.org/2000/svg">
<path fill-rule="evenodd" clip-rule="evenodd" d="M8.1674 3.1953C8.35287 2.9171 8.6651 2.75 8.99945 2.75H14.9995C15.3338 2.75 15.646 2.9171 15.8315 3.1953L17.0346 5H19.5C20.163 5 20.7989 5.26339 21.2678 5.73223C21.7366 6.20107 22 6.83696 22 7.5V18C22 18.663 21.7366 19.2989 21.2678 19.7678C20.7989 20.2366 20.163 20.5 19.5 20.5H4.5C3.83696 20.5 3.20107 20.2366 2.73223 19.7678C2.26339 19.2989 2 18.663 2 18V7.5C2 6.83696 2.26339 6.20107 2.73223 5.73223C3.20107 5.26339 3.83696 5 4.5 5H6.96427L8.1674 3.1953ZM9.53463 4.75L8.3315 6.5547C8.14604 6.8329 7.8338 7 7.49945 7H4.5C4.36739 7 4.24022 7.05268 4.14645 7.14645C4.05268 7.24022 4 7.36739 4 7.5V18C4 18.1326 4.05268 18.2598 4.14645 18.3536C4.24022 18.4473 4.36739 18.5 4.5 18.5H19.5C19.6326 18.5 19.7598 18.4473 19.8536 18.3536C19.9473 18.2598 20 18.1326 20 18V7.5C20 7.36739 19.9473 7.24022 19.8536 7.14645C19.7598 7.05268 19.6326 7 19.5 7H16.4995C16.1651 7 15.8529 6.8329 15.6674 6.5547L14.4643 4.75H9.53463Z" fill="black"/>
<path fill-rule="evenodd" clip-rule="evenodd" d="M12 10C10.6883 10 9.625 11.0633 9.625 12.375C9.625 13.6867 10.6883 14.75 12 14.75C13.3117 14.75 14.375 13.6867 14.375 12.375C14.375 11.0633 13.3117 10 12 10ZM7.625 12.375C7.625 9.95875 9.58375 8 12 8C14.4162 8 16.375 9.95875 16.375 12.375C16.375 14.7912 14.4162 16.75 12 16.75C9.58375 16.75 7.625 14.7912 7.625 12.375Z" fill="black"/>
</svg>
