<svg width="24" height="24" viewBox="0 0 24 24" fill="none" xmlns="http://www.w3.org/2000/svg">
<path d="M13.4086 11.9983L17.7045 7.71244C17.8926 7.52431 17.9983 7.26917 17.9983 7.00312C17.9983 6.73708 17.8926 6.48193 17.7045 6.29381C17.5164 6.10569 17.2612 6 16.9952 6C16.7291 6 16.474 6.10569 16.2859 6.29381L12 10.5897L7.71414 6.29381C7.52602 6.10569 7.27087 6 7.00483 6C6.73878 6 6.48363 6.10569 6.29551 6.29381C6.10739 6.48193 6.0017 6.73708 6.0017 7.00312C6.0017 7.26917 6.10739 7.52431 6.29551 7.71244L10.5914 11.9983L6.29551 16.2842C6.20187 16.377 6.12755 16.4875 6.07683 16.6093C6.02611 16.731 6 16.8616 6 16.9935C6 17.1254 6.02611 17.2559 6.07683 17.3777C6.12755 17.4994 6.20187 17.6099 6.29551 17.7028C6.38839 17.7964 6.49888 17.8707 6.62062 17.9215C6.74236 17.9722 6.87294 17.9983 7.00483 17.9983C7.13671 17.9983 7.26729 17.9722 7.38903 17.9215C7.51077 17.8707 7.62127 17.7964 7.71414 17.7028L12 13.4069L16.2859 17.7028C16.3787 17.7964 16.4892 17.8707 16.611 17.9215C16.7327 17.9722 16.8633 17.9983 16.9952 17.9983C17.1271 17.9983 17.2576 17.9722 17.3794 17.9215C17.5011 17.8707 17.6116 17.7964 17.7045 17.7028C17.7981 17.6099 17.8724 17.4994 17.9232 17.3777C17.9739 17.2559 18 17.1254 18 16.9935C18 16.8616 17.9739 16.731 17.9232 16.6093C17.8724 16.4875 17.7981 16.377 17.7045 16.2842L13.4086 11.9983Z" fill="white"/>
</svg>
