<svg width="24" height="24" viewBox="0 0 24 24" fill="none" xmlns="http://www.w3.org/2000/svg">
<path fill-rule="evenodd" clip-rule="evenodd" d="M12 4.90001C9.89571 4.90001 8.11928 6.31373 7.57306 8.24495C7.46345 8.63247 7.10975 8.90001 6.70703 8.90001H6.5C4.51177 8.90001 2.9 10.5118 2.9 12.5C2.9 14.4882 4.51177 16.1 6.5 16.1H8C8.49706 16.1 8.9 16.5029 8.9 17C8.9 17.4971 8.49706 17.9 8 17.9H6.5C3.51766 17.9 1.1 15.4823 1.1 12.5C1.1 9.66637 3.28257 7.34251 6.05832 7.11781C7.00317 4.76347 9.30634 3.10001 12 3.10001C14.6937 3.10001 16.9968 4.76347 17.9417 7.11781C20.7174 7.34251 22.9 9.66637 22.9 12.5C22.9 15.4823 20.4823 17.9 17.5 17.9H16C15.5029 17.9 15.1 17.4971 15.1 17C15.1 16.5029 15.5029 16.1 16 16.1H17.5C19.4882 16.1 21.1 14.4882 21.1 12.5C21.1 10.5118 19.4882 8.90001 17.5 8.90001H17.293C16.8902 8.90001 16.5365 8.63247 16.4269 8.24495C15.8807 6.31373 14.1043 4.90001 12 4.90001Z" fill="black"/>
<path fill-rule="evenodd" clip-rule="evenodd" d="M11.3636 8.86361C11.7151 8.51214 12.2849 8.51214 12.6364 8.86361L16.1364 12.3636C16.4879 12.7151 16.4879 13.2849 16.1364 13.6364C15.7849 13.9879 15.2151 13.9879 14.8636 13.6364L12.9 11.6728V19.5C12.9 19.9971 12.4971 20.4 12 20.4C11.5029 20.4 11.1 19.9971 11.1 19.5V11.6728L9.13639 13.6364C8.78492 13.9879 8.21507 13.9879 7.8636 13.6364C7.51213 13.2849 7.51213 12.7151 7.8636 12.3636L11.3636 8.86361Z" fill="black"/>
</svg>
