<svg width="24" height="24" viewBox="0 0 24 24" fill="none" xmlns="http://www.w3.org/2000/svg">
<path fill-rule="evenodd" clip-rule="evenodd" d="M16 5H8.00003C7.44775 5 7.00003 5.44772 7.00003 6V10C7.00003 12.7614 9.23861 15 12 15C14.7615 15 17 12.7614 17 10V6C17 5.44772 16.5523 5 16 5ZM8.00003 3C6.34318 3 5.00003 4.34315 5.00003 6V10C5.00003 13.866 8.13404 17 12 17C15.866 17 19 13.866 19 10V6C19 4.34315 17.6569 3 16 3H8.00003Z" fill="black"/>
<path fill-rule="evenodd" clip-rule="evenodd" d="M0.999969 8.00002C0.999969 6.34316 2.34312 5.00002 3.99997 5.00002H6.99997V13H4.99997C2.79083 13 0.999969 11.2092 0.999969 9.00002V8.00002ZM3.99997 7.00002H4.99997V11C3.8954 11 2.99997 10.1046 2.99997 9.00002V8.00002C2.99997 7.44773 3.44768 7.00002 3.99997 7.00002Z" fill="black"/>
<path fill-rule="evenodd" clip-rule="evenodd" d="M23 8.00002C23 6.34316 21.6568 5.00002 20 5.00002H17V13H19C21.2091 13 23 11.2092 23 9.00002V8.00002ZM20 7.00002H19V11C20.1045 11 21 10.1046 21 9.00002V8.00002C21 7.44773 20.5523 7.00002 20 7.00002Z" fill="black"/>
<path d="M12 15C11.4477 15 11 15.4477 11 16V19H9.00003C8.44775 19 8.00003 19.4477 8.00003 20C8.00003 20.5523 8.44775 21 9.00003 21H15C15.5523 21 16 20.5523 16 20C16 19.4477 15.5523 19 15 19H13V16C13 15.4477 12.5523 15 12 15Z" fill="black"/>
</svg>
