<svg width="24" height="24" viewBox="0 0 24 24" fill="none" xmlns="http://www.w3.org/2000/svg">
<path fill-rule="evenodd" clip-rule="evenodd" d="M12.3332 2C12.4309 2.00004 12.5274 2.02155 12.6159 2.06303C12.7044 2.1045 12.7826 2.16492 12.8452 2.24L19.5118 10.24C19.6017 10.3478 19.6553 10.4813 19.6649 10.6214C19.6744 10.7614 19.6395 10.9009 19.5652 11.02L12.8985 21.6867C12.8386 21.7825 12.7553 21.8616 12.6564 21.9164C12.5575 21.9712 12.4463 22 12.3332 22C12.2201 22 12.1089 21.9712 12.01 21.9164C11.9111 21.8616 11.8278 21.7825 11.7678 21.6867L5.10118 11.02C5.02681 10.9009 4.99193 10.7614 5.00151 10.6214C5.01108 10.4813 5.06463 10.3478 5.15452 10.24L11.8212 2.24C11.8837 2.16492 11.962 2.1045 12.0505 2.06303C12.139 2.02155 12.2355 2.00004 12.3332 2ZM6.65451 10.9893L12.3332 8.72L18.0118 10.9907L12.3332 20.076L6.65451 10.9893ZM16.8012 9.06933L12.3332 7.28267L7.86652 9.06933L12.3332 3.70667L16.7998 9.06667L16.8012 9.06933Z" fill="black"/>
<path fill-rule="evenodd" clip-rule="evenodd" d="M12.3333 1.75C12.4676 1.75005 12.6003 1.77964 12.722 1.83666C12.8436 1.89368 12.9513 1.97674 13.0372 2.07996M13.0372 2.07996L19.7039 10.0799C19.7039 10.0799 19.7039 10.0799 19.7039 10.0799C19.8275 10.2282 19.9011 10.4117 19.9143 10.6043C19.9274 10.7969 19.8795 10.9887 19.7772 11.1524L13.1105 21.8192C13.0281 21.951 12.9135 22.0597 12.7776 22.1351C12.6416 22.2105 12.4887 22.25 12.3332 22.25C12.1777 22.25 12.0248 22.2105 11.8888 22.1351C11.7528 22.0597 11.6382 21.951 11.5558 21.8192L4.88918 11.1525C4.78692 10.9888 4.73892 10.7969 4.75209 10.6043C4.76526 10.4117 4.83888 10.2282 4.96246 10.08C4.96245 10.08 4.96246 10.0799 4.96246 10.08L11.6291 2.08C11.7151 1.97676 11.8227 1.89369 11.9444 1.83666C11.9893 1.81561 12.0357 1.79829 12.0832 1.78482V1.74991L12.3333 1.75M12.3333 2.25C12.2722 2.25003 12.2119 2.26347 12.1566 2.28939C12.1013 2.31532 12.0524 2.35308 12.0133 2.4L5.34657 10.4C5.29039 10.4674 5.25691 10.5509 5.25092 10.6384C5.24494 10.726 5.26674 10.8131 5.31322 10.8876L11.9798 21.5542C12.0173 21.6141 12.0694 21.6635 12.1312 21.6978C12.193 21.732 12.2625 21.75 12.3332 21.75C12.4038 21.75 12.4734 21.732 12.5352 21.6978C12.597 21.6635 12.6491 21.6141 12.6865 21.5542L19.3531 10.8876C19.3996 10.8131 19.4214 10.726 19.4154 10.6384C19.4094 10.5509 19.376 10.4675 19.3198 10.4001L12.6531 2.40005C12.614 2.35312 12.5651 2.31532 12.5098 2.28939C12.4545 2.26347 12.3943 2.25003 12.3333 2.25L12.3332 2H12.5832V2.24991L12.3333 2.25ZM12.3331 3.3161L17.0105 8.92893L17.3186 9.5455L12.3332 7.55192L7.95936 9.30145L7.67442 8.90934L12.3331 3.3161ZM12.3332 4.09724L15.9779 8.47089L12.3332 7.01342L8.69076 8.47038L12.3332 4.09724ZM12.3332 8.45077L18.3824 10.8696L12.3332 20.5477L6.28399 10.8682L12.3332 8.45077ZM7.02503 11.1105L12.3332 19.6043L17.6413 11.1118L12.3332 8.98924L7.02503 11.1105Z" fill="black"/>
</svg>
