<svg width="24" height="24" viewBox="0 0 24 24" fill="none" xmlns="http://www.w3.org/2000/svg">
<path fill-rule="evenodd" clip-rule="evenodd" d="M3.23035 7.91757C5.05166 6.09605 7.91738 4.24927 12 4.24927C16.0826 4.24927 18.9483 6.09605 20.7696 7.91757C21.6774 8.82544 22.3317 9.73157 22.7603 10.4124C22.9751 10.7536 23.1347 11.0405 23.2423 11.246C23.2961 11.3487 23.3371 11.4314 23.3655 11.4904C23.3797 11.5199 23.3908 11.5436 23.3988 11.561L23.4086 11.5823L23.4118 11.5893L23.4134 11.593C23.4136 11.5935 23.4138 11.5939 22.5 12C23.4138 12.4062 23.4136 12.4066 23.4134 12.4071L23.4129 12.4081L23.4118 12.4107L23.4086 12.4178L23.3988 12.4391C23.3908 12.4565 23.3797 12.4801 23.3655 12.5097C23.337 12.5687 23.2961 12.6513 23.2423 12.7541C23.1347 12.9594 22.9751 13.2463 22.7603 13.5874C22.3316 14.2681 21.6773 15.1741 20.7696 16.0818C18.9482 17.9029 16.0825 19.7493 12 19.7493C7.91745 19.7493 5.05176 17.9029 3.23043 16.0818C2.32265 15.1741 1.66837 14.2681 1.23972 13.5874C1.02491 13.2463 0.865334 12.9594 0.757737 12.7541C0.703902 12.6513 0.662966 12.5687 0.634533 12.5097C0.620313 12.4801 0.609209 12.4565 0.601172 12.4391L0.591407 12.4178L0.588236 12.4107L0.587076 12.4081L0.586602 12.4071C0.586394 12.4066 0.586198 12.4062 1.49999 12C0.586166 11.5939 0.586361 11.5935 0.586569 11.593L0.587043 11.5919L0.588203 11.5893L0.591374 11.5823L0.601137 11.561C0.609173 11.5436 0.620277 11.5199 0.634496 11.4904C0.662928 11.4314 0.703862 11.3487 0.757696 11.246C0.865289 11.0405 1.02486 10.7536 1.23967 10.4124C1.66831 9.73157 2.32258 8.82544 3.23035 7.91757ZM1.49999 12L0.586569 11.593C0.471661 11.8516 0.471673 12.1485 0.586602 12.4071L1.49999 12ZM2.62314 11.9999C2.70283 12.144 2.80555 12.3207 2.93214 12.5217C3.30037 13.1065 3.86484 13.8879 4.64456 14.6675C6.19823 16.221 8.58253 17.7493 12 17.7493C15.4175 17.7493 17.8018 16.221 19.3554 14.6675C20.1351 13.8879 20.6996 13.1065 21.0679 12.5217C21.1944 12.3207 21.2972 12.144 21.3769 11.9999C21.2971 11.8559 21.1944 11.6791 21.0678 11.478C20.6996 10.8931 20.1351 10.1115 19.3553 9.3317C17.8017 7.77785 15.4174 6.24927 12 6.24927C8.58261 6.24927 6.19832 7.77785 4.64464 9.3317C3.86491 10.1115 3.30043 10.8931 2.93219 11.478C2.80557 11.6791 2.70284 11.8559 2.62314 11.9999ZM22.5 12L23.4134 12.4071C23.5283 12.1485 23.5283 11.8516 23.4134 11.593L22.5 12ZM2.41288 12.4082C2.41266 12.4087 2.41275 12.4085 2.41288 12.4082V12.4082ZM2.41299 11.592C2.41276 11.5915 2.41285 11.5917 2.41299 11.592V11.592Z" fill="black"/>
<path fill-rule="evenodd" clip-rule="evenodd" d="M12 9.25006C10.4812 9.25006 9.25 10.4813 9.25 12.0001C9.25 13.5188 10.4812 14.7501 12 14.7501C13.5188 14.7501 14.75 13.5188 14.75 12.0001C14.75 10.4813 13.5188 9.25006 12 9.25006ZM7.25 12.0001C7.25 9.37671 9.37665 7.25006 12 7.25006C14.6234 7.25006 16.75 9.37671 16.75 12.0001C16.75 14.6234 14.6234 16.7501 12 16.7501C9.37665 16.7501 7.25 14.6234 7.25 12.0001Z" fill="black"/>
</svg>
