<svg width="24" height="24" viewBox="0 0 24 24" fill="none" xmlns="http://www.w3.org/2000/svg">
<path fill-rule="evenodd" clip-rule="evenodd" d="M12 4C7.58172 4 4 7.58172 4 12C4 16.4183 7.58172 20 12 20C16.4183 20 20 16.4183 20 12C20 7.58172 16.4183 4 12 4ZM2 12C2 6.47715 6.47715 2 12 2C17.5228 2 22 6.47715 22 12C22 17.5228 17.5228 22 12 22C6.47715 22 2 17.5228 2 12Z" fill="black"/>
<path fill-rule="evenodd" clip-rule="evenodd" d="M11.604 11.6643C11.9343 11.4801 12.3154 11.4079 12.6902 11.4584L12.5668 12.3742L12.6902 11.4584L14.8295 11.7467L14.6959 12.7378L14.8295 11.7467C15.0717 11.7794 15.3043 11.8624 15.5125 11.9904C15.5125 11.9904 15.5125 11.9904 15.5125 11.9904L20.6018 15.1206C21.0723 15.4099 21.2191 16.0258 20.9297 16.4963C20.6404 16.9667 20.0245 17.1135 19.554 16.8242L14.5098 13.7217L12.6086 13.4655L11.4676 16.0257L13.1182 17.8111C13.3047 18.0127 13.441 18.2554 13.5163 18.5195C13.5915 18.7837 13.6036 19.0618 13.5514 19.3314L13.1924 21.1873C13.0875 21.7296 12.5629 22.0841 12.0207 21.9792C11.4784 21.8743 11.1239 21.3497 11.2288 20.8075L11.5638 19.0758L9.88719 17.2624L10.5898 16.6128L9.88719 17.2624C9.65478 17.011 9.50122 16.697 9.4455 16.3592C9.38978 16.0214 9.43436 15.6747 9.57372 15.362C9.57372 15.362 9.57372 15.362 9.57372 15.362L10.858 12.4803L11.7714 12.8874L10.858 12.4803C11.0119 12.1349 11.2737 11.8486 11.604 11.6643ZM11.6497 19.1688C11.6496 19.1687 11.6495 19.1686 11.6495 19.1685L11.6497 19.1688Z" fill="black"/>
<path fill-rule="evenodd" clip-rule="evenodd" d="M6.47877 4.29206C6.98744 4.50718 7.22541 5.09392 7.01029 5.60259L6.21058 7.4936L7.20493 10.1474L9.08037 10.5505C9.34049 10.6064 9.58443 10.7209 9.79366 10.8853C10.0029 11.0496 10.1719 11.2595 10.2878 11.499L10.2878 11.499L10.5763 12.095H11.6789C12.2311 12.095 12.6789 12.5427 12.6789 13.095C12.6789 13.6473 12.2311 14.095 11.6789 14.095H10.4196C10.0907 14.095 9.76859 14.0023 9.49 13.8277C9.21141 13.653 8.98766 13.4034 8.8444 13.1074L9.7266 12.6804L8.8444 13.1074L8.54079 12.4802L6.65105 12.0741C6.36423 12.0124 6.09751 11.8797 5.87541 11.688C5.65332 11.4963 5.48297 11.2519 5.38003 10.9772L4.30277 8.10201C4.14562 7.6826 4.15526 7.21889 4.32972 6.80637L5.16824 4.82359C5.38336 4.31492 5.9701 4.07695 6.47877 4.29206Z" fill="black"/>
<path fill-rule="evenodd" clip-rule="evenodd" d="M13.8055 2.42204C14.2877 2.15282 14.8969 2.32549 15.1661 2.80771L16.0411 4.37506C16.2341 4.72079 16.3042 5.12175 16.2399 5.51245C16.1755 5.90314 15.9806 6.26047 15.687 6.52606L13.1641 8.80771L13.1641 8.80771C13.0641 8.89806 12.9541 8.97658 12.8362 9.0417L12.8362 9.0417L11.6886 9.67548C11.4295 9.81853 11.1385 9.89355 10.8426 9.89355H9.0074L8.29116 11.5939C8.07676 12.1029 7.49035 12.3417 6.98138 12.1273C6.47241 11.9129 6.23361 11.3264 6.44801 10.8175L7.22869 8.9642C7.36236 8.64687 7.58668 8.37602 7.87355 8.18558C8.16042 7.99514 8.4971 7.89355 8.84144 7.89355H10.7781L11.844 7.30493L14.1978 5.17621L13.4198 3.78264C13.1506 3.30042 13.3233 2.69125 13.8055 2.42204Z" fill="black"/>
</svg>
