<svg width="24" height="24" viewBox="0 0 24 24" fill="none" xmlns="http://www.w3.org/2000/svg">
<path fill-rule="evenodd" clip-rule="evenodd" d="M10.125 4C9.89293 4 9.67037 4.09219 9.50627 4.25628C9.34218 4.42038 9.24999 4.64294 9.24999 4.875V14.7437C9.24999 15.1963 8.94599 15.5925 8.50881 15.7096C8.07163 15.8268 7.61027 15.6357 7.38397 15.2437L5.32826 11.6831C5.27086 11.5835 5.19397 11.4954 5.1028 11.4254C5.01164 11.3554 4.90756 11.304 4.79652 11.2742C4.68548 11.2444 4.56966 11.2367 4.45567 11.2517C4.34169 11.2667 4.23177 11.304 4.1322 11.3615C4.03264 11.419 3.94538 11.4955 3.87541 11.5867C3.80544 11.678 3.75413 11.7821 3.72442 11.8931C3.69471 12.0042 3.68718 12.12 3.70226 12.234C3.71734 12.348 3.75473 12.4579 3.8123 12.5574C3.82595 12.581 3.83864 12.6052 3.85033 12.6298C5.38024 15.8576 6.54529 17.8824 7.77313 19.1137C8.92582 20.2696 10.1592 20.75 12 20.75C12.8536 20.75 13.6988 20.5819 14.4874 20.2552C15.276 19.9286 15.9926 19.4498 16.5962 18.8462C17.1998 18.2426 17.6786 17.5261 18.0052 16.7374C18.3319 15.9488 18.5 15.1036 18.5 14.25V6.375C18.5 6.14294 18.4078 5.92038 18.2437 5.75628C18.0796 5.59219 17.8571 5.5 17.625 5.5C17.3929 5.5 17.1704 5.59219 17.0063 5.75628C16.8422 5.92038 16.75 6.14294 16.75 6.375V11.25C16.75 11.8023 16.3023 12.25 15.75 12.25C15.1977 12.25 14.75 11.8023 14.75 11.25V6.375C14.75 5.6125 15.0529 4.88124 15.5921 4.34207C16.1312 3.8029 16.8625 3.5 17.625 3.5C18.3875 3.5 19.1188 3.8029 19.6579 4.34207C20.1971 4.88124 20.5 5.6125 20.5 6.375V14.25C20.5 15.3662 20.2801 16.4715 19.853 17.5028C19.4258 18.5341 18.7997 19.4711 18.0104 20.2604C17.2211 21.0497 16.2841 21.6758 15.2528 22.103C14.2215 22.5301 13.1162 22.75 12 22.75C9.6986 22.75 7.93203 22.1054 6.35693 20.5259C4.86213 19.0269 3.57532 16.7164 2.05876 13.5195C1.88225 13.203 1.7671 12.8559 1.71953 12.4963C1.66999 12.1218 1.69474 11.7412 1.79235 11.3763C1.88997 11.0114 2.05855 10.6693 2.28845 10.3695C2.51834 10.0698 2.80506 9.81831 3.1322 9.62943C3.45934 9.44055 3.8205 9.318 4.19503 9.26877C4.56957 9.21954 4.95013 9.2446 5.31497 9.34253C5.67981 9.44045 6.02177 9.60931 6.32132 9.83946C6.62087 10.0696 6.87212 10.3565 7.06073 10.6838L7.24999 11.0116V4.875C7.24999 4.1125 7.55289 3.38124 8.09206 2.84207C8.63122 2.3029 9.36249 2 10.125 2C10.8875 2 11.6188 2.3029 12.1579 2.84207C12.6971 3.38124 13 4.1125 13 4.875V11.25C13 11.8023 12.5523 12.25 12 12.25C11.4477 12.25 11 11.8023 11 11.25V4.875C11 4.64294 10.9078 4.42038 10.7437 4.25628C10.5796 4.09219 10.3571 4 10.125 4Z" fill="black"/>
<path fill-rule="evenodd" clip-rule="evenodd" d="M11.8421 1.34207C12.3812 0.802901 13.1125 0.5 13.875 0.5C14.6375 0.5 15.3688 0.802901 15.9079 1.34207C16.4471 1.88124 16.75 2.6125 16.75 3.375V11.25C16.75 11.8023 16.3023 12.25 15.75 12.25C15.1977 12.25 14.75 11.8023 14.75 11.25V3.375C14.75 3.14294 14.6578 2.92038 14.4937 2.75628C14.3296 2.59219 14.1071 2.5 13.875 2.5C13.6429 2.5 13.4204 2.59219 13.2563 2.75628C13.0922 2.92038 13 3.14294 13 3.375V11.25C13 11.8023 12.5523 12.25 12 12.25C11.4477 12.25 11 11.8023 11 11.25V3.375C11 2.6125 11.3029 1.88124 11.8421 1.34207Z" fill="black"/>
</svg>
