<svg width="24" height="24" viewBox="0 0 24 24" fill="none" xmlns="http://www.w3.org/2000/svg">
<path fill-rule="evenodd" clip-rule="evenodd" d="M9.39225 1.90162C10.9089 0.699459 13.0622 0.699459 14.5789 1.90162L14.5812 1.90348L21.154 7.14521C21.9881 7.78658 22.4855 8.77179 22.4999 9.82413L22.5001 9.83784L22.5 18.5618C22.5 21.0224 20.4879 23 18.0271 23H16.103L16.0798 22.9997C14.8771 22.9718 13.9003 21.9956 13.9005 20.7809C13.9005 20.7808 13.9005 20.781 13.9005 20.7809V17.7047C13.9005 17.4827 13.716 17.2856 13.4671 17.2856H10.5853C10.3389 17.2885 10.1572 17.4844 10.1572 17.7046V20.7714C10.1572 20.8616 10.1453 20.9491 10.1229 21.0322C9.99265 22.1474 9.03769 23 7.89696 23H5.97291C3.51209 23 1.5 21.0224 1.5 18.5618V9.83748C1.51042 8.78297 2.00869 7.79496 2.84608 7.15466L9.39225 1.90162ZM8.15722 20.7714V17.7047C8.15722 17.7047 8.15722 17.7047 8.15722 17.7047C8.1572 16.3656 9.2462 15.2944 10.5744 15.2856L10.581 15.2856L13.4671 15.2856C14.8015 15.2856 15.9005 16.3592 15.9005 17.7047V20.7809C15.9005 20.8887 15.9882 20.9933 16.119 21H18.0271C19.4023 21 20.5 19.8989 20.5 18.5618V9.84562C20.4922 9.40992 20.2848 8.99799 19.931 8.72777L19.9145 8.71486L13.3366 3.46898C13.3362 3.4687 13.3358 3.46842 13.3355 3.46814C12.5474 2.84424 11.4252 2.84395 10.6367 3.46728L4.08789 8.72249C4.08066 8.72829 4.07335 8.73399 4.06597 8.73959C3.71223 9.00763 3.50561 9.41869 3.5 9.85296V18.5618C3.5 19.8989 4.59766 21 5.97291 21H7.89696C8.03957 21 8.13797 20.8882 8.13797 20.7714H8.15722Z" fill="#FFFFFF99"/>
</svg>
