<svg width="24" height="24" viewBox="0 0 24 24" fill="none" xmlns="http://www.w3.org/2000/svg">
<path fill-rule="evenodd" clip-rule="evenodd" d="M12 9.25C10.4812 9.25 9.25 10.4812 9.25 12C9.25 13.5188 10.4812 14.75 12 14.75C13.5188 14.75 14.75 13.5188 14.75 12C14.75 10.4812 13.5188 9.25 12 9.25ZM7.25 12C7.25 9.37665 9.37665 7.25 12 7.25C14.6234 7.25 16.75 9.37665 16.75 12C16.75 14.6234 14.6234 16.75 12 16.75C9.37665 16.75 7.25 14.6234 7.25 12Z" fill="rgba(255, 255, 255, 0.6)"/>
<path fill-rule="evenodd" clip-rule="evenodd" d="M7.875 4.375C5.942 4.375 4.375 5.942 4.375 7.875V16.125C4.375 18.058 5.942 19.625 7.875 19.625H16.125C18.058 19.625 19.625 18.058 19.625 16.125V7.875C19.625 5.942 18.058 4.375 16.125 4.375H7.875ZM2.375 7.875C2.375 4.83743 4.83743 2.375 7.875 2.375H16.125C19.1626 2.375 21.625 4.83743 21.625 7.875V16.125C21.625 19.1626 19.1626 21.625 16.125 21.625H7.875C4.83743 21.625 2.375 19.1626 2.375 16.125V7.875Z" fill="rgba(255, 255, 255, 0.6)"/>
<path d="M16.875 8.25C17.4963 8.25 18 7.74632 18 7.125C18 6.50368 17.4963 6 16.875 6C16.2537 6 15.75 6.50368 15.75 7.125C15.75 7.74632 16.2537 8.25 16.875 8.25Z" fill="rgba(255, 255, 255, 0.6)"/>
</svg>
