<svg width="24" height="24" viewBox="0 0 24 24" fill="none" xmlns="http://www.w3.org/2000/svg">
<path d="M16.5 5.25H21" stroke="black" stroke-width="2" stroke-linecap="round" stroke-linejoin="round"/>
<path d="M18.75 3V7.5" stroke="black" stroke-width="2" stroke-linecap="round" stroke-linejoin="round"/>
<path d="M2.90522 20.2491C3.82731 18.6531 5.15317 17.3278 6.74961 16.4064C8.34605 15.485 10.1569 15 12.0001 15C13.8434 15 15.6542 15.4851 17.2506 16.4065C18.847 17.3279 20.1728 18.6533 21.0949 20.2493" stroke="black" stroke-width="2" stroke-linecap="round" stroke-linejoin="round"/>
<path d="M17.6298 11.0796C17.2287 12.1625 16.5235 13.1066 15.599 13.7984C14.6744 14.4902 13.5697 14.9004 12.4176 14.9796C11.2656 15.0588 10.1152 14.8037 9.10458 14.245C8.09399 13.6862 7.26622 12.8476 6.72071 11.8298C6.1752 10.812 5.93515 9.65831 6.0294 8.5074C6.12365 7.35648 6.5482 6.25726 7.25203 5.34177C7.95586 4.42629 8.90904 3.73348 9.99707 3.34659C11.0851 2.9597 12.2617 2.89518 13.3855 3.16077" stroke="black" stroke-width="2" stroke-linecap="round" stroke-linejoin="round"/>
</svg>
