<svg width="24" height="24" viewBox="0 0 24 24" fill="none" xmlns="http://www.w3.org/2000/svg">
<path fill-rule="evenodd" clip-rule="evenodd" d="M15.4566 0.609567C15.8543 0.813687 16.0683 1.25699 15.9806 1.69536L14.6474 8.3615L19.8511 10.3129C20.1638 10.4301 20.3972 10.6957 20.4735 11.0207C20.5498 11.3458 20.4589 11.6875 20.2311 11.9316L9.73106 23.1816C9.42603 23.5084 8.94114 23.593 8.54341 23.3889C8.14568 23.1848 7.93175 22.7415 8.01942 22.3031L9.35265 15.637L4.14888 13.6856C3.83625 13.5683 3.60276 13.3028 3.52646 12.9778C3.45016 12.6527 3.54113 12.311 3.76895 12.0669L14.2689 0.816925C14.574 0.490107 15.0589 0.405448 15.4566 0.609567ZM6.25162 12.3381L10.8511 14.0629C11.3102 14.2351 11.5767 14.7146 11.4806 15.1954L10.671 19.2433L17.7484 11.6604L13.1489 9.93557C12.6898 9.76343 12.4233 9.28387 12.5194 8.80313L13.329 4.75518L6.25162 12.3381Z" fill="black"/>
</svg>
