<svg width="20" height="20" viewBox="0 0 24 24" fill="none" xmlns="http://www.w3.org/2000/svg">
<path fill-rule="evenodd" clip-rule="evenodd" d="M15.8887 8.11006C16.2793 8.50059 16.2793 9.13375 15.8887 9.52428L9.52478 15.8882C9.13425 16.2788 8.50109 16.2788 8.11056 15.8882C7.72004 15.4977 7.72004 14.8645 8.11056 14.474L14.4745 8.11006C14.865 7.71954 15.4982 7.71954 15.8887 8.11006Z" fill="rgba(255, 255, 255, 0.4)"/>
<path fill-rule="evenodd" clip-rule="evenodd" d="M7.93359 9.70177C8.32412 10.0923 8.32412 10.7255 7.93359 11.116L5.28206 13.7675C5.28202 13.7675 5.2821 13.7675 5.28206 13.7675C4.62595 14.4239 4.25728 15.3142 4.25736 16.2423C4.25744 17.1704 4.62618 18.0605 5.28248 18.7168C5.93879 19.3731 6.82891 19.7419 7.75706 19.742C8.68516 19.742 9.57528 19.3735 10.2317 18.7174C10.2316 18.7174 10.2317 18.7173 10.2317 18.7174L12.8833 16.0657C13.2739 15.6752 13.907 15.6752 14.2976 16.0657C14.6881 16.4562 14.6881 17.0894 14.2976 17.4799L11.6459 20.1316C10.6144 21.1627 9.21542 21.7421 7.75689 21.742C6.29836 21.7418 4.89961 21.1624 3.86827 20.131C2.83694 19.0997 2.25748 17.701 2.25736 16.2424C2.25723 14.7839 2.83645 13.385 3.86761 12.3535L6.51938 9.70177C6.9099 9.31124 7.54307 9.31124 7.93359 9.70177Z" fill="rgba(255, 255, 255, 0.4)"/>
<path fill-rule="evenodd" clip-rule="evenodd" d="M12.3536 3.86756C13.3851 2.8364 14.7839 2.25718 16.2425 2.25731C17.701 2.25743 19.0998 2.83689 20.1311 3.86822C21.1624 4.89956 21.7419 6.29831 21.742 7.75684C21.7421 9.21537 21.1629 10.6142 20.1318 11.6457L17.48 14.2975C17.0895 14.688 16.4563 14.688 16.0658 14.2975C15.6752 13.907 15.6752 13.2738 16.0658 12.8833L18.7173 10.2318C18.7173 10.2318 18.7173 10.2317 18.7173 10.2318C19.3734 9.57536 19.7421 8.68511 19.742 7.75701C19.7419 6.82886 19.3732 5.93874 18.7169 5.28244C18.0606 4.62613 17.1705 4.25739 16.2423 4.25731C15.3142 4.25723 14.4241 4.62577 13.7677 5.28189C13.7676 5.28193 13.7677 5.28185 13.7677 5.28189L11.116 7.93354C10.7255 8.32406 10.0923 8.32406 9.70181 7.93354C9.31129 7.54301 9.31129 6.90985 9.70181 6.51933L12.3536 3.86756Z" fill="rgba(255, 255, 255, 0.4)"/>
</svg>
