<svg width="24" height="24" viewBox="0 0 24 24" fill="none" xmlns="http://www.w3.org/2000/svg">
<path fill-rule="evenodd" clip-rule="evenodd" d="M8.08924 5.00139L8.55958 5.002C8.63998 5.00211 8.72128 5.00223 8.80332 5.00236L9.30319 5.00317C10.4 5.00504 11.5682 5.00761 12.4586 5.00946L12.8485 5.01025C12.9098 5.01038 12.9691 5.01049 13.0263 5.01061C15.2763 4.85261 17.3073 6.52261 17.4883 8.76361C17.49 8.78659 17.4915 8.91703 17.4927 9.1543L19.5685 7.45431C20.1725 6.95931 20.9855 6.86231 21.6905 7.19531C22.3955 7.53031 22.8335 8.22231 22.8325 9.00231L22.8205 16.3513C22.8195 17.1313 22.3805 17.8233 21.6765 18.1553C21.4005 18.2863 21.1085 18.3493 20.8185 18.3493C20.3675 18.3493 19.9225 18.1943 19.5555 17.8933L17.4974 16.1855C17.4973 16.2145 17.4973 16.2435 17.4973 16.2726C17.5393 17.3286 17.1633 18.3456 16.4373 19.1356C15.6743 19.9666 14.6223 20.4496 13.4763 20.4966C13.4569 20.498 13.3473 20.4989 13.1676 20.4995L12.7725 20.5002C12.6184 20.5003 12.4434 20.5003 12.2516 20.5002L11.4056 20.4994C11.3294 20.4993 11.252 20.4992 11.1735 20.4991L10.6911 20.4984C9.54171 20.4964 8.24701 20.4934 7.24326 20.4912L6.83216 20.4903C6.70191 20.4901 6.57888 20.4898 6.46432 20.4896C6.35832 20.4976 6.25232 20.5016 6.14632 20.5016C4.03232 20.5026 2.18832 18.8826 2.01432 16.7576L2.01416 16.7555L2.01323 16.7356C2.01316 16.7335 2.01309 16.7311 2.01302 16.7285L2.01233 16.697C2.01225 16.6925 2.01217 16.6877 2.01209 16.6825L2.01133 16.6242C2.01125 16.6164 2.01116 16.6081 2.01107 16.5992L2.01027 16.5047C2.01018 16.4924 2.01009 16.4796 2.01 16.466L2.00946 16.3767C2.00936 16.3604 2.00927 16.3434 2.00918 16.3257L2.00837 16.1447C2.00828 16.1221 2.00819 16.0987 2.0081 16.0744L2.00732 15.8308C2.00724 15.8009 2.00715 15.77 2.00707 15.7381L2.00635 15.4225C2.00627 15.3842 2.00619 15.3447 2.00612 15.3041L2.00528 14.7597C2.00521 14.7094 2.00515 14.6578 2.00509 14.6049L2.00431 13.7082C2.00427 13.6413 2.00423 13.5729 2.0042 13.503L2.00418 9.58505C2.00422 9.46623 2.00427 9.34542 2.00432 9.22261C1.95632 8.19161 2.33032 7.16761 3.06032 6.37061C3.82232 5.53861 4.87332 5.05361 6.02032 5.00461C6.03576 5.00349 6.10885 5.00265 6.2294 5.00205L6.44456 5.0013C6.48593 5.0012 6.52995 5.00112 6.57645 5.00105L7.86455 5.00116C7.93812 5.00123 8.01307 5.00131 8.08924 5.00139ZM13.0803 6.50861C11.8178 6.50677 10.274 6.50457 8.95658 6.50313L8.26349 6.50242C8.15274 6.50232 8.04462 6.50223 7.93951 6.50214L6.20043 6.5022C6.13499 6.50249 6.09265 6.50294 6.07632 6.50361C5.33832 6.53461 4.65732 6.84761 4.16632 7.38361C3.70832 7.88461 3.47232 8.52461 3.50332 9.18861L3.50415 13.0516C3.50419 13.1368 3.50424 13.2215 3.50429 13.3055L3.5052 14.4996C3.50528 14.5739 3.50535 14.6469 3.50543 14.7186L3.50595 15.1317C3.50604 15.1976 3.50613 15.2618 3.50623 15.3244L3.50721 15.8394C3.50827 16.303 3.50962 16.6037 3.51132 16.6616C3.62532 18.0466 4.92332 19.1056 6.40932 18.9916C6.56646 18.9918 6.72793 18.9921 6.89275 18.9923L7.39628 18.9931C7.82266 18.9938 8.26391 18.9946 8.70485 18.9953L9.23287 18.9962C9.49583 18.9966 9.7565 18.9971 10.0116 18.9975L10.5134 18.9982C10.5954 18.9983 10.6766 18.9985 10.7569 18.9986L11.2254 18.9992C11.3012 18.9993 11.3758 18.9994 11.449 18.9994L13.2145 18.9994C13.3299 18.999 13.4025 18.9984 13.4243 18.9976C14.1593 18.9676 14.8413 18.6556 15.3323 18.1206C15.7913 17.6216 16.0273 16.9816 15.9983 16.3206L15.9974 16.3041L15.9973 11.4679C15.9972 11.3894 15.9972 11.3118 15.9971 11.2354L15.9964 10.3796C15.9963 10.3139 15.9962 10.2499 15.9961 10.1875L15.9953 9.67408C15.995 9.52002 15.9946 9.38402 15.9942 9.26906L15.9934 9.06808C15.9928 8.95397 15.9921 8.88079 15.9913 8.85561C15.8783 7.46361 14.5743 6.39161 13.0803 6.50861ZM20.5185 8.61531L17.4969 11.0806C17.4971 11.2035 17.4972 11.3312 17.4973 11.4638L17.4979 13.9714L20.5065 16.7343C20.7275 16.9143 20.9495 16.8403 21.0355 16.7983C21.1215 16.7583 21.3205 16.6333 21.3205 16.3493L21.3325 9.00031C21.3335 8.71631 21.1335 8.59131 21.0475 8.55031C20.9625 8.51031 20.7375 8.43531 20.5185 8.61531Z" fill="black" stroke="black" stroke-width="0.5"/>
</svg>
