<svg width="24" height="24" viewBox="0 0 24 24" fill="none" xmlns="http://www.w3.org/2000/svg">
<path fill-rule="evenodd" clip-rule="evenodd" d="M11.9996 19.9075C7.40055 17.2881 4.8355 14.6846 3.59513 12.4257C2.32562 10.1137 2.43638 8.16645 3.14084 6.78441C4.58881 3.94368 8.70641 3.0353 11.2152 6.20828L11.9996 7.20033L12.784 6.20833C15.2932 3.03522 19.411 3.94374 20.859 6.7844C21.5634 8.16643 21.6741 10.1137 20.4045 12.4257C19.1641 14.6846 16.5989 17.2881 11.9996 19.9075ZM11.9996 4.10619C8.47044 0.752583 3.26405 2.13862 1.35896 5.87615C0.313422 7.92736 0.29914 10.5785 1.84203 13.3883C3.37123 16.1733 6.42013 19.1129 11.5159 21.9293L11.9996 22.1967L12.4833 21.9294C17.5792 19.1129 20.6283 16.1733 22.1576 13.3884C23.7006 10.5785 23.6864 7.92738 22.6408 5.87615C20.7357 2.13855 15.5292 0.752634 11.9996 4.10619Z" fill="black"/>
</svg>
