<svg width="24" height="24" viewBox="0 0 24 24" fill="none" xmlns="http://www.w3.org/2000/svg">
<path fill-rule="evenodd" clip-rule="evenodd" d="M11.9995 2.25C8.27153 2.25 5.24945 5.27208 5.24945 9C5.24945 12.7279 8.27153 15.75 11.9995 15.75C15.7274 15.75 18.7495 12.7279 18.7495 9C18.7495 5.27208 15.7274 2.25 11.9995 2.25ZM3.74945 9C3.74945 4.44365 7.4431 0.75 11.9995 0.75C16.5558 0.75 20.2495 4.44365 20.2495 9C20.2495 13.5563 16.5558 17.25 11.9995 17.25C7.4431 17.25 3.74945 13.5563 3.74945 9Z" fill="black"/>
<path fill-rule="evenodd" clip-rule="evenodd" d="M3.49945 9C3.49945 4.30558 7.30503 0.5 11.9995 0.5C16.6939 0.5 20.4995 4.30558 20.4995 9C20.4995 13.6944 16.6939 17.5 11.9995 17.5C7.30503 17.5 3.49945 13.6944 3.49945 9ZM11.9995 1C7.58117 1 3.99945 4.58172 3.99945 9C3.99945 13.4183 7.58117 17 11.9995 17C16.4177 17 19.9995 13.4183 19.9995 9C19.9995 4.58172 16.4177 1 11.9995 1ZM11.9995 2.5C8.4096 2.5 5.49945 5.41015 5.49945 9C5.49945 12.5899 8.4096 15.5 11.9995 15.5C15.5893 15.5 18.4995 12.5899 18.4995 9C18.4995 5.41015 15.5893 2.5 11.9995 2.5ZM4.99945 9C4.99945 5.13401 8.13346 2 11.9995 2C15.8654 2 18.9995 5.13401 18.9995 9C18.9995 12.866 15.8654 16 11.9995 16C8.13346 16 4.99945 12.866 4.99945 9Z" fill="black"/>
<path fill-rule="evenodd" clip-rule="evenodd" d="M11.9999 6.85714C10.8165 6.85714 9.85708 7.81653 9.85708 9C9.85708 10.1835 10.8165 11.1429 11.9999 11.1429C13.1834 11.1429 14.1428 10.1835 14.1428 9C14.1428 7.81653 13.1834 6.85714 11.9999 6.85714ZM8.99994 9C8.99994 7.34315 10.3431 6 11.9999 6C13.6568 6 14.9999 7.34315 14.9999 9C14.9999 10.6569 13.6568 12 11.9999 12C10.3431 12 8.99994 10.6569 8.99994 9Z" fill="black"/>
<path fill-rule="evenodd" clip-rule="evenodd" d="M8.99994 9C8.99994 7.34315 10.3431 6 11.9999 6C13.6568 6 14.9999 7.34315 14.9999 9C14.9999 10.6569 13.6568 12 11.9999 12C10.3431 12 8.99994 10.6569 8.99994 9ZM11.9999 8.14286C11.5266 8.14286 11.1428 8.52661 11.1428 9C11.1428 9.47339 11.5266 9.85714 11.9999 9.85714C12.4733 9.85714 12.8571 9.47339 12.8571 9C12.8571 8.52661 12.4733 8.14286 11.9999 8.14286Z" fill="black"/>
<path fill-rule="evenodd" clip-rule="evenodd" d="M16.5 14.2495C16.9142 14.2495 17.25 14.5853 17.25 14.9995V22.5C17.25 22.7599 17.1154 23.0013 16.8943 23.138C16.6732 23.2746 16.3971 23.2871 16.1646 23.1708L11.9994 21.0885L7.83545 23.1708C7.60296 23.2871 7.32684 23.2746 7.10572 23.138C6.8846 23.0013 6.75 22.7599 6.75 22.5V15.0002C6.75 14.586 7.08579 14.2502 7.5 14.2502C7.91421 14.2502 8.25 14.586 8.25 15.0002V21.2864L11.6639 19.5792C11.875 19.4736 12.1236 19.4736 12.3347 19.5792L15.75 21.2866V14.9995C15.75 14.5853 16.0858 14.2495 16.5 14.2495Z" fill="black"/>
<path fill-rule="evenodd" clip-rule="evenodd" d="M15.5 14.9995C15.5 14.4472 15.9477 13.9995 16.5 13.9995C17.0523 13.9995 17.5 14.4472 17.5 14.9995V22.5C17.5 22.8466 17.3206 23.1684 17.0258 23.3506C16.731 23.5328 16.3628 23.5494 16.0528 23.3945L11.9994 21.368L7.94727 23.3944C7.63728 23.5494 7.26912 23.5329 6.97429 23.3507C6.67946 23.1685 6.5 22.8466 6.5 22.5V15.0002C6.5 14.4479 6.94772 14.0002 7.5 14.0002C8.05228 14.0002 8.5 14.4479 8.5 15.0002V20.8819L11.5521 19.3556C11.8336 19.2148 12.165 19.2148 12.4465 19.3555L15.5 20.8821V14.9995ZM16.5 14.4995C16.2239 14.4995 16 14.7234 16 14.9995V21.2866C16 21.3732 15.9551 21.4537 15.8814 21.4992C15.8077 21.5448 15.7157 21.5489 15.6382 21.5102L12.2229 19.8028C12.0822 19.7324 11.9165 19.7324 11.7757 19.8028L8.36182 21.51C8.28432 21.5487 8.19228 21.5446 8.11857 21.4991C8.04487 21.4535 8 21.373 8 21.2864V15.0002C8 14.724 7.77614 14.5002 7.5 14.5002C7.22386 14.5002 7 14.724 7 15.0002V22.5C7 22.6733 7.08973 22.8342 7.23715 22.9253C7.38456 23.0164 7.56864 23.0247 7.72363 22.9472L11.8876 20.8649C11.958 20.8297 12.0408 20.8297 12.1112 20.8649L16.2764 22.9472C16.4314 23.0247 16.6155 23.0164 16.7629 22.9253C16.9103 22.8342 17 22.6733 17 22.5V14.9995C17 14.7234 16.7761 14.4995 16.5 14.4995Z" fill="black"/>
</svg>
