<svg width="24" height="24" viewBox="0 0 24 24" fill="none" xmlns="http://www.w3.org/2000/svg">
<path d="M19.0711 6.34314L6.34317 19.0711C6.15563 19.2586 5.90128 19.364 5.63606 19.364C5.37085 19.364 5.11649 19.2586 4.92896 19.0711C4.74142 18.8835 4.63606 18.6292 4.63606 18.364C4.63606 18.0987 4.74142 17.8444 4.92896 17.6568L17.6569 4.92893C17.8444 4.74139 18.0988 4.63603 18.364 4.63603C18.6292 4.63603 18.8836 4.74139 19.0711 4.92893C19.2586 5.11646 19.364 5.37082 19.364 5.63603C19.364 5.90125 19.2586 6.1556 19.0711 6.34314Z" fill="white"/>
<path d="M4.92906 6.34311L17.657 19.071C17.8445 19.2586 18.0989 19.3639 18.3641 19.3639C18.6293 19.3639 18.8837 19.2586 19.0712 19.071C19.2587 18.8835 19.3641 18.6291 19.3641 18.3639C19.3641 18.0987 19.2587 17.8444 19.0712 17.6568L6.34327 4.9289C6.15574 4.74136 5.90138 4.636 5.63617 4.636C5.37095 4.636 5.1166 4.74136 4.92906 4.9289C4.74152 5.11643 4.63617 5.37078 4.63617 5.636C4.63617 5.90122 4.74152 6.15557 4.92906 6.34311Z" fill="white"/>
</svg>
