<svg width="24" height="24" viewBox="0 0 24 24" fill="none" xmlns="http://www.w3.org/2000/svg">
<path d="M17.7188 5.71875C16.7366 5.71875 15.8065 5.94553 14.9777 6.34917C14.1267 5.93583 13.1892 5.71875 12.2344 5.71875C11.159 5.71875 10.1459 5.99058 9.26006 6.46889C8.34797 5.97694 7.32694 5.71875 6.28125 5.71875C2.81775 5.71875 0 8.5365 0 12C0 15.4635 2.81775 18.2812 6.28125 18.2812C7.32698 18.2812 8.34797 18.0231 9.26006 17.5311C10.1459 18.0094 11.159 18.2812 12.2344 18.2812C13.1856 18.2812 14.1274 18.0636 14.9778 17.6508C15.8065 18.0545 16.7366 18.2812 17.7188 18.2812C21.1823 18.2812 24 15.4635 24 12C24 8.5365 21.1823 5.71875 17.7188 5.71875ZM7.57819 16.2114C7.161 16.3396 6.72445 16.4062 6.28125 16.4062C3.85162 16.4062 1.875 14.4296 1.875 12C1.875 9.57037 3.85162 7.59375 6.28125 7.59375C6.72445 7.59375 7.161 7.66036 7.57819 7.78856C6.56883 8.90348 5.95312 10.3812 5.95312 12C5.95312 13.6188 6.56883 15.0965 7.57819 16.2114ZM13.1532 16.3092C12.8522 16.3731 12.5441 16.4062 12.2344 16.4062C9.80475 16.4062 7.82812 14.4296 7.82812 12C7.82812 9.57037 9.80475 7.59375 12.2344 7.59375C12.5451 7.59375 12.853 7.62666 13.1535 7.6905C12.0903 8.81611 11.4375 10.3332 11.4375 12C11.4375 13.6667 12.0902 15.1836 13.1532 16.3092ZM17.7188 16.4062C15.2891 16.4062 13.3125 14.4296 13.3125 12C13.3125 9.57037 15.2891 7.59375 17.7188 7.59375C20.1484 7.59375 22.125 9.57037 22.125 12C22.125 14.4296 20.1484 16.4062 17.7188 16.4062Z" fill="black"/>
</svg>
