<svg width="24" height="24" viewBox="0 0 24 24" fill="none" xmlns="http://www.w3.org/2000/svg">
<path d="M14.1222 9.88088C14.2621 10.0207 14.4403 10.116 14.6343 10.1546C14.8282 10.1931 15.0293 10.1733 15.212 10.0976C15.3948 10.022 15.5509 9.89379 15.6608 9.72934C15.7707 9.56489 15.8293 9.37155 15.8293 9.17377C15.8293 8.97599 15.7707 8.78265 15.6608 8.6182C15.5509 8.45375 15.3948 8.32558 15.212 8.24989C15.0293 8.1742 14.8282 8.1544 14.6343 8.19298C14.4403 8.23157 14.2621 8.32681 14.1222 8.46666C13.9347 8.6542 13.8293 8.90855 13.8293 9.17377C13.8293 9.43899 13.9347 9.69334 14.1222 9.88088ZM18.3649 4.63414L11.2938 4.63415C11.1622 4.63468 11.032 4.66119 10.9107 4.71215C10.7893 4.76312 10.6792 4.83753 10.5867 4.93113L2.80853 12.7093C2.24592 13.2719 1.92985 14.035 1.92985 14.8306C1.92985 15.6263 2.24592 16.3893 2.80853 16.9519L7.05117 21.1946C7.61378 21.7572 8.37684 22.0733 9.17249 22.0733C9.96814 22.0733 10.7312 21.7572 11.2938 21.1946L19.072 13.4164C19.1656 13.3239 19.24 13.2138 19.291 13.0925C19.3419 12.9711 19.3684 12.8409 19.369 12.7093L19.369 5.63824C19.3695 5.50623 19.3439 5.37541 19.2936 5.25335C19.2434 5.13128 19.1694 5.02038 19.0761 4.92703C18.9827 4.83368 18.8718 4.75974 18.7498 4.70947C18.6277 4.6592 18.4969 4.6336 18.3649 4.63414ZM17.3679 12.2921L9.87959 19.7804C9.69206 19.9679 9.4377 20.0733 9.17249 20.0733C8.90727 20.0733 8.65292 19.9679 8.46538 19.7804L4.22274 15.5377C4.0352 15.3502 3.92985 15.0958 3.92985 14.8306C3.92985 14.5654 4.0352 14.3111 4.22274 14.1235L11.711 6.63526H17.3679L17.3679 12.2921Z" fill="black"/>
</svg>
