<svg width="17" height="14" viewBox="0 0 17 14" fill="rgba(255, 255, 255, 0.6)" xmlns="http://www.w3.org/2000/svg">
<path d="M15.1457 3.41739C15.156 3.56631 15.156 3.71523 15.156 3.86552C15.156 8.44503 11.6737 13.7266 5.30627 13.7266V13.7239C3.4253 13.7266 1.58341 13.1872 -6.10352e-05 12.1701C0.273447 12.2031 0.548326 12.2195 0.823891 12.2202C2.38268 12.2216 3.89691 11.698 5.12324 10.7338C3.64191 10.7056 2.34292 9.73866 1.88913 8.32699C2.40804 8.42719 2.94272 8.4066 3.45204 8.26729C1.83704 7.94062 0.675141 6.52003 0.675141 4.87023V4.82631C1.15635 5.09464 1.69514 5.24356 2.24627 5.26003C0.725181 4.24229 0.25631 2.2164 1.17486 0.632483C2.93244 2.79768 5.52562 4.11395 8.30937 4.25327C8.03038 3.04954 8.41151 1.78817 9.31087 0.941993C10.7051 -0.370164 12.898 -0.302909 14.2086 1.09229C14.9839 0.939248 15.727 0.654444 16.407 0.250914C16.1486 1.05317 15.6077 1.73464 14.8852 2.16768C15.5714 2.0867 16.2418 1.90278 16.8731 1.62209C16.4084 2.31935 15.823 2.9267 15.1457 3.41739Z" fill-opacity="1"/>
</svg>
