<svg width="24" height="24" viewBox="0 0 24 24" fill="none" xmlns="http://www.w3.org/2000/svg">
<g clip-path="url(#clip0_1354_2104)">
<path d="M18.5332 4.2506C18.7611 4.80187 19.1987 5.24006 19.7496 5.46883L21.6814 6.26902C22.2327 6.49738 22.6708 6.9354 22.8991 7.48672C23.1275 8.03803 23.1275 8.65748 22.8991 9.20879L22.0995 11.1392C21.871 11.6908 21.8707 12.3109 22.1002 12.8622L22.8984 14.792C23.0117 15.0651 23.0699 15.3578 23.07 15.6534C23.07 15.949 23.0118 16.2417 22.8987 16.5148C22.7856 16.7879 22.6198 17.036 22.4107 17.245C22.2017 17.454 21.9535 17.6197 21.6804 17.7327L19.7499 18.5324C19.1987 18.7603 18.7605 19.1978 18.5317 19.7488L17.7315 21.6806C17.5031 22.2319 17.0651 22.6699 16.5138 22.8983C15.9625 23.1266 15.343 23.1266 14.7917 22.8983L12.8613 22.0987C12.31 21.8709 11.6907 21.8713 11.1397 22.1L9.20792 22.899C8.65691 23.1268 8.038 23.1266 7.48713 22.8985C6.93627 22.6703 6.4985 22.2328 6.26998 21.6821L5.46955 19.7497C5.24161 19.1984 4.80408 18.7602 4.25315 18.5314L2.32132 17.7312C1.77025 17.503 1.33236 17.0652 1.10392 16.5142C0.875471 15.9632 0.875161 15.3441 1.10306 14.7929L1.90267 12.8624C2.13047 12.3111 2.13001 11.6919 1.90138 11.1409L1.10291 9.20766C0.989703 8.9346 0.93141 8.64191 0.931363 8.34631C0.931315 8.05072 0.989514 7.75801 1.10263 7.48492C1.21575 7.21182 1.38158 6.96369 1.59063 6.75471C1.79968 6.54572 2.04786 6.37998 2.32099 6.26695L4.25144 5.46733C4.80223 5.23959 5.24015 4.80261 5.46909 4.25232L6.26928 2.32049C6.49764 1.76918 6.93566 1.33116 7.48697 1.1028C8.03829 0.874436 8.65774 0.874436 9.20905 1.1028L11.1395 1.90241C11.6908 2.13021 12.3101 2.12975 12.861 1.90112L14.7937 1.10404C15.3449 0.875804 15.9642 0.87585 16.5154 1.10417C17.0666 1.33248 17.5046 1.77037 17.733 2.32154L18.5334 4.25395L18.5332 4.2506Z" fill="#FE3D2D"/>
<path fill-rule="evenodd" clip-rule="evenodd" d="M16.6999 8.85413C16.8602 8.6023 16.9139 8.29711 16.8492 8.00567C16.7845 7.71424 16.6067 7.46045 16.3549 7.30013C16.1031 7.1398 15.7979 7.08608 15.5064 7.15078C15.215 7.21548 14.9612 7.3933 14.8009 7.64513L10.3954 14.5676L8.37939 12.0476C8.19301 11.8145 7.92166 11.665 7.62502 11.6319C7.32838 11.5989 7.03077 11.685 6.79764 11.8714C6.56452 12.0578 6.41498 12.3291 6.38193 12.6257C6.34887 12.9224 6.43501 13.22 6.62139 13.4531L9.62139 17.2031C9.7332 17.3431 9.8768 17.4543 10.0402 17.5275C10.2037 17.6008 10.3823 17.6339 10.5611 17.6242C10.74 17.6146 10.9139 17.5623 11.0685 17.4718C11.2231 17.3814 11.3538 17.2553 11.4499 17.1041L16.6999 8.85413Z" fill="white"/>
</g>
<defs>
<clipPath id="clip0_1354_2104">
<rect width="24" height="24" fill="white"/>
</clipPath>
</defs>
</svg>
