<svg width="144" height="144" viewBox="0 0 144 144" fill="none" xmlns="http://www.w3.org/2000/svg">
<path d="M70 144C108.66 144 140 112.66 140 74C140 35.3401 108.66 4 70 4C31.3401 4 0 35.3401 0 74C0 112.66 31.3401 144 70 144Z" fill="white" fill-opacity="0.1"/>
<mask id="mask0_58_4013" style="mask-type:alpha" maskUnits="userSpaceOnUse" x="0" y="4" width="140" height="140">
<path d="M70 144C108.66 144 140 112.66 140 74C140 35.3401 108.66 4 70 4C31.3401 4 0 35.3401 0 74C0 112.66 31.3401 144 70 144Z" fill="#DBEAFE"/>
</mask>
<g mask="url(#mask0_58_4013)">
<rect x="24" y="36" width="92" height="116" rx="12" fill="white"/>
</g>
<rect x="40" y="74" width="36" height="6" rx="3" fill="black" fill-opacity="0.2"/>
<rect x="40" y="86" width="60" height="6" rx="3" fill="black" fill-opacity="0.2"/>
<rect x="40" y="98" width="60" height="6" rx="3" fill="black" fill-opacity="0.2"/>
<rect x="40" y="110" width="60" height="6" rx="3" fill="black" fill-opacity="0.2"/>
<rect x="82" y="74" width="18" height="6" rx="3" fill="black" fill-opacity="0.6"/>
<rect x="40" y="52" width="14" height="14" rx="7" fill="#FE3D2D"/>
<path d="M120 46C132.15 46 142 36.1503 142 24C142 11.8497 132.15 2 120 2C107.85 2 98 11.8497 98 24C98 36.1503 107.85 46 120 46Z" fill="#FE3D2D" stroke="black" stroke-width="4"/>
<path d="M118.853 30.9977H118.784C118.392 31.0139 118.001 30.9452 117.643 30.7971C117.285 30.649 116.971 30.4257 116.726 30.1456L112.609 25.4402C112.389 25.2088 112.222 24.9391 112.119 24.6473C112.017 24.3555 111.98 24.0476 112.011 23.7424C112.042 23.4372 112.14 23.1409 112.3 22.8714C112.46 22.602 112.679 22.3649 112.942 22.1746C113.205 21.9843 113.508 21.8447 113.832 21.7642C114.156 21.6837 114.494 21.664 114.827 21.7063C115.159 21.7486 115.479 21.852 115.766 22.0103C116.054 22.1685 116.303 22.3783 116.499 22.6271L118.482 24.9014L123.581 17.8466C123.969 17.4051 124.525 17.1126 125.138 17.0264C125.751 16.9402 126.378 17.0667 126.894 17.3809C127.41 17.6952 127.779 18.1744 127.928 18.7244C128.076 19.2743 127.994 19.8552 127.698 20.3527L120.747 29.9889C120.536 30.2775 120.256 30.5184 119.928 30.6932C119.599 30.868 119.232 30.9721 118.853 30.9977Z" fill="white"/>
</svg>
