<svg width="56" height="56" viewBox="0 0 56 56" fill="none" xmlns="http://www.w3.org/2000/svg">
<path d="M36.639 5.60895C39.5795 6.7434 42.2677 8.44592 44.5502 10.6193C46.8327 12.7927 48.6648 15.3943 49.9419 18.2757C51.2189 21.1571 51.9159 24.2619 51.9931 27.4126C52.0703 30.5634 51.5261 33.6985 50.3916 36.639C49.2572 39.5795 47.5547 42.2677 45.3813 44.5502C43.2079 46.8327 40.6063 48.6648 37.7249 49.9419C34.8435 51.2189 31.7387 51.9159 28.5879 51.9931C25.4372 52.0703 22.302 51.5261 19.3616 50.3916C16.4211 49.2572 13.7329 47.5547 11.4503 45.3813C9.16784 43.2079 7.33576 40.6063 6.05871 37.7249C4.78166 34.8435 4.08465 31.7387 4.00748 28.588C3.93031 25.4372 4.47448 22.3021 5.60894 19.3616C6.74339 16.4211 8.4459 13.7329 10.6193 11.4504C12.7926 9.16786 15.3943 7.33578 18.2757 6.05873C21.1571 4.78168 24.2618 4.08467 27.4126 4.0075C30.5634 3.93032 33.6985 4.4745 36.639 5.60895L36.639 5.60895Z" stroke="#D9D9D9" stroke-width="8"/>
<path d="M36.639 5.60895C41.3676 7.43327 45.3973 10.7077 48.1505 14.963C50.9037 19.2183 52.2391 24.236 51.9652 29.2969" stroke="#2D2D2D" stroke-width="8" stroke-linecap="round"/>
</svg>
