<svg width="145" height="20" viewBox="0 0 145 20" fill="none" xmlns="http://www.w3.org/2000/svg">
<path d="M3.5419 16V6.96276H0V4H10.5273V6.96276H6.96902V16H3.5419Z" fill="#FE3D2D"/>
<path d="M9.01228 16L13.3249 4H17.0799L21.3925 16H17.6703L17.0635 13.9972H13.2757L12.669 16H9.01228ZM15.1942 7.8069L14.0792 11.4152H16.2765L15.1942 7.8069Z" fill="#FE3D2D"/>
<path d="M22.0747 16V4H31.4869V6.96276H22.0747V8.48552H31.4869V11.4648H22.0747V13.0207H31.5525V16H22.0747Z" fill="#FE3D2D"/>
<path d="M31.7181 16L35.8831 9.97517L31.8493 4H35.8995L37.9165 7.01241L39.999 4H43.8688L39.835 9.84276L44 16H39.9498L37.7853 12.8055L35.588 16H31.7181Z" fill="#FE3D2D"/>
<path d="M53.2754 15V5.13574H55.0801L59.5371 11.5479H59.5781V5.13574H61.6357V15H59.8447L55.374 8.54004H55.333V15H53.2754ZM63.2832 15V5.13574H69.7432V6.83789H65.3477V9.4834H69.3604V11.1172H65.3477V15H63.2832ZM73.3252 15V6.83789H70.4746V5.13574H78.2471V6.83789H75.3896V15H73.3252ZM82.1641 15V5.13574H85.9307C88.8838 5.13574 90.6338 6.89258 90.6338 10.0166V10.0303C90.6338 13.1611 88.8906 15 85.9307 15H82.1641ZM84.2285 13.291H85.6846C87.5303 13.291 88.5283 12.1699 88.5283 10.0371V10.0234C88.5283 7.96582 87.4961 6.83789 85.6846 6.83789H84.2285V13.291ZM92.835 6.72852C92.2334 6.72852 91.7686 6.25684 91.7686 5.68945C91.7686 5.12207 92.2334 4.65039 92.835 4.65039C93.4365 4.65039 93.9014 5.12207 93.9014 5.68945C93.9014 6.25684 93.4365 6.72852 92.835 6.72852ZM91.8369 15V7.67188H93.833V15H91.8369ZM98.5977 17.543C96.5811 17.543 95.3096 16.6338 95.1182 15.458L95.1113 15.3965H97.0527L97.0732 15.4443C97.2305 15.8066 97.7637 16.1211 98.5977 16.1211C99.6299 16.1211 100.177 15.5879 100.177 14.7676V13.6465H100.136C99.7529 14.4121 98.9326 14.8975 97.873 14.8975C96.041 14.8975 94.9062 13.5303 94.9062 11.2539V11.2471C94.9062 8.90918 96.0547 7.52148 97.9072 7.52148C98.9395 7.52148 99.7393 8.06836 100.136 8.92285H100.177V7.67188H102.173V14.7949C102.173 16.4287 100.799 17.543 98.5977 17.543ZM98.5635 13.4346C99.541 13.4346 100.184 12.6143 100.184 11.3018V11.2949C100.184 9.98926 99.5342 9.17578 98.5635 9.17578C97.5723 9.17578 96.9365 9.98242 96.9365 11.2949V11.3018C96.9365 12.6211 97.5654 13.4346 98.5635 13.4346ZM104.524 6.72852C103.923 6.72852 103.458 6.25684 103.458 5.68945C103.458 5.12207 103.923 4.65039 104.524 4.65039C105.126 4.65039 105.591 5.12207 105.591 5.68945C105.591 6.25684 105.126 6.72852 104.524 6.72852ZM103.526 15V7.67188H105.522V15H103.526ZM109.774 15.1504C108.147 15.1504 107.382 14.5215 107.382 12.9492V9.17578H106.363V7.67188H107.382V5.88086H109.398V7.67188H110.738V9.17578H109.398V12.7305C109.398 13.4141 109.706 13.6465 110.308 13.6465C110.485 13.6465 110.615 13.626 110.738 13.6123V15.0752C110.513 15.1094 110.191 15.1504 109.774 15.1504ZM113.951 15.1162C112.481 15.1162 111.49 14.1934 111.49 12.9014V12.8877C111.49 11.5547 112.522 10.7754 114.341 10.6592L116.152 10.5498V10.0986C116.152 9.44922 115.729 9.0459 114.949 9.0459C114.204 9.0459 113.753 9.39453 113.657 9.86621L113.644 9.92773H111.818L111.825 9.8457C111.935 8.49219 113.097 7.52148 115.031 7.52148C116.925 7.52148 118.148 8.49902 118.148 9.97559V15H116.152V13.9062H116.111C115.694 14.6582 114.915 15.1162 113.951 15.1162ZM113.466 12.7988C113.466 13.3389 113.91 13.6602 114.601 13.6602C115.496 13.6602 116.152 13.0859 116.152 12.3203V11.7939L114.642 11.8896C113.869 11.9375 113.466 12.2656 113.466 12.7852V12.7988ZM119.488 15V5.13574H121.484V15H119.488ZM125.148 15L128.594 5.13574H131.021L134.459 15H132.292L131.547 12.6074H128.061L127.315 15H125.148ZM129.783 7.0498L128.539 11.0625H131.068L129.824 7.0498H129.783ZM135.3 15V7.67188H137.296V8.9502H137.337C137.556 8.04785 138.15 7.52148 139.005 7.52148C139.224 7.52148 139.429 7.55566 139.579 7.59668V9.35352C139.415 9.28516 139.142 9.24414 138.854 9.24414C137.87 9.24414 137.296 9.83203 137.296 10.8984V15H135.3ZM143.585 15.1504C141.958 15.1504 141.192 14.5215 141.192 12.9492V9.17578H140.174V7.67188H141.192V5.88086H143.209V7.67188H144.549V9.17578H143.209V12.7305C143.209 13.4141 143.517 13.6465 144.118 13.6465C144.296 13.6465 144.426 13.626 144.549 13.6123V15.0752C144.323 15.1094 144.002 15.1504 143.585 15.1504Z" fill="white"/>
</svg>
