<svg width="210" height="24" viewBox="0 0 210 24" fill="none" xmlns="http://www.w3.org/2000/svg">
<g clip-path="url(#clip0_168_3679)">
<path d="M121.485 11.4348L126.515 18.6717H122.577L119.479 14.2163L116.278 18.6717H112.722L117.751 11.6924L113.001 4.81602H116.913L119.758 8.91095L122.704 4.81602H126.286L121.485 11.4348ZM132.659 4.50697C133.387 4.50697 134.09 4.60999 134.768 4.81602C135.461 5.02205 136.089 5.3311 136.647 5.74316C137.206 6.15523 137.671 6.6789 138.044 7.31415C138.417 7.94943 138.662 8.69628 138.781 9.55476H135.428C135.293 8.90235 134.971 8.36152 134.463 7.93225C133.971 7.48586 133.371 7.26266 132.659 7.26266C131.694 7.26266 130.915 7.64038 130.323 8.39582C129.746 9.15132 129.459 10.2588 129.459 11.7181C129.459 13.1775 129.739 14.3021 130.297 15.0919C130.873 15.8646 131.669 16.2509 132.685 16.2509C133.328 16.2509 133.904 16.0792 134.412 15.7357C134.937 15.3923 135.318 14.8 135.555 13.9587H138.908C138.705 14.903 138.391 15.7014 137.968 16.3538C137.544 16.9891 137.045 17.5042 136.469 17.8991C135.911 18.2941 135.292 18.5773 134.615 18.749C133.937 18.9207 133.235 19.0065 132.507 19.0065C131.457 19.0065 130.526 18.8262 129.713 18.4657C128.9 18.1052 128.205 17.6072 127.63 16.9719C127.054 16.3195 126.614 15.5555 126.309 14.6798C126.021 13.7871 125.877 12.817 125.877 11.7697C125.877 10.7223 126.03 9.75217 126.335 8.85939C126.656 7.96661 127.113 7.20258 127.707 6.5673C128.299 5.91486 129.01 5.40837 129.84 5.0478C130.669 4.68725 131.609 4.50697 132.659 4.50697ZM143.609 6.64456C143.999 5.94061 144.54 5.40837 145.235 5.0478C145.945 4.68725 146.724 4.50697 147.571 4.50697C149.213 4.50697 150.407 4.98771 151.153 5.9492C151.915 6.89353 152.295 8.22418 152.295 9.94107V18.6717H148.791V10.7137C148.791 10.2673 148.756 9.84669 148.689 9.45178C148.638 9.03969 148.527 8.67916 148.359 8.37011C148.189 8.06106 147.943 7.82068 147.622 7.64897C147.317 7.46008 146.919 7.3657 146.428 7.3657C145.853 7.3657 145.378 7.47726 145.006 7.70046C144.65 7.92365 144.362 8.22418 144.142 8.6019C143.939 8.96243 143.795 9.39164 143.711 9.88958C143.643 10.3875 143.609 10.9111 143.609 11.4606V18.6717H140.103V0H143.609V6.64456ZM162.894 12.3362C161.911 12.4392 161.073 12.5509 160.379 12.671C159.685 12.7912 159.117 12.9457 158.677 13.1346C158.237 13.3062 157.915 13.5295 157.712 13.8042C157.509 14.0617 157.407 14.3794 157.407 14.7571C157.407 15.255 157.602 15.6843 157.991 16.0448C158.38 16.4054 158.973 16.5856 159.769 16.5856C160.869 16.5856 161.666 16.2766 162.157 15.6585C162.647 15.0404 162.894 14.1648 162.894 13.0316V12.3362ZM163.173 16.8947C162.682 17.6329 162.072 18.1738 161.344 18.5172C160.633 18.8434 159.761 19.0065 158.728 19.0065C158.067 19.0065 157.441 18.9122 156.849 18.7233C156.255 18.5344 155.731 18.2683 155.273 17.9249C154.833 17.5814 154.477 17.1608 154.207 16.6629C153.935 16.1478 153.801 15.5812 153.801 14.9631C153.801 14.139 154.011 13.4522 154.435 12.9028C154.875 12.3362 155.485 11.8726 156.264 11.5121C157.059 11.1516 158.008 10.8596 159.109 10.6364C160.227 10.4133 161.454 10.2244 162.792 10.0699V9.81232C162.792 9.28007 162.724 8.83368 162.589 8.47308C162.453 8.09536 162.267 7.7949 162.03 7.57171C161.809 7.34852 161.539 7.19399 161.217 7.10814C160.895 7.0051 160.548 6.95361 160.176 6.95361C159.414 6.95361 158.779 7.13391 158.271 7.49445C157.779 7.85498 157.517 8.4216 157.483 9.19422H154.207C154.274 8.50745 154.461 7.88076 154.765 7.31415C155.087 6.73042 155.51 6.23249 156.035 5.82043C156.577 5.39119 157.204 5.0564 157.915 4.81602C158.643 4.57564 159.439 4.45546 160.303 4.45546C161.149 4.45546 161.937 4.55848 162.665 4.76451C163.393 4.95338 164.028 5.27959 164.57 5.74316C165.111 6.20674 165.535 6.83346 165.84 7.6232C166.145 8.39582 166.297 9.36586 166.297 10.5335C166.297 10.6364 166.289 10.8253 166.272 11.1C166.272 11.3576 166.272 11.658 166.272 12.0014C166.272 12.3449 166.263 12.7054 166.247 13.0831C166.247 13.4436 166.247 13.7785 166.247 14.0875C166.247 15.1863 166.28 16.0792 166.348 16.7659C166.415 17.4527 166.517 18.088 166.653 18.6717H163.427C163.376 18.4486 163.325 18.1824 163.275 17.8734C163.241 17.5643 163.207 17.2381 163.173 16.8947ZM171.846 6.64456C172.236 5.94061 172.778 5.40837 173.471 5.0478C174.183 4.68725 174.962 4.50697 175.809 4.50697C177.451 4.50697 178.645 4.98771 179.39 5.9492C180.152 6.89353 180.533 8.22418 180.533 9.94107V18.6717H177.027V10.7137C177.027 10.2673 176.995 9.84669 176.926 9.45178C176.875 9.03969 176.766 8.67916 176.596 8.37011C176.427 8.06106 176.181 7.82068 175.859 7.64897C175.555 7.46008 175.157 7.3657 174.665 7.3657C174.09 7.3657 173.616 7.47726 173.243 7.70046C172.887 7.92365 172.6 8.22418 172.379 8.6019C172.176 8.96243 172.033 9.39164 171.947 9.88958C171.88 10.3875 171.846 10.9111 171.846 11.4606V18.6717H168.341V4.81602H171.846V6.64456ZM188.21 15.4782C189.192 15.4782 189.963 15.1005 190.521 14.345C191.08 13.5724 191.359 12.568 191.359 11.3318C191.359 10.1128 191.08 9.12555 190.521 8.37011C189.963 7.59749 189.192 7.21117 188.21 7.21117C187.735 7.21117 187.303 7.32274 186.915 7.54593C186.541 7.75201 186.22 8.04388 185.949 8.4216C185.695 8.79931 185.492 9.23711 185.339 9.73505C185.204 10.233 185.137 10.7738 185.137 11.3576C185.137 11.9242 185.204 12.465 185.339 12.9801C185.492 13.478 185.695 13.9158 185.949 14.2935C186.22 14.6541 186.541 14.946 186.915 15.1692C187.303 15.3752 187.735 15.4782 188.21 15.4782ZM194.713 4.81602V17.7675C194.713 18.9007 194.56 19.8622 194.255 20.6519C193.951 21.4417 193.51 22.0856 192.934 22.5835C192.358 23.0814 191.655 23.442 190.826 23.6652C189.996 23.8884 189.056 24 188.007 24C187.278 24 186.575 23.9227 185.899 23.7682C185.238 23.6308 184.636 23.3905 184.095 23.0471C183.569 22.7209 183.121 22.283 182.749 21.7336C182.393 21.1842 182.156 20.506 182.037 19.699H185.365C185.67 20.8322 186.609 21.3988 188.185 21.3988C189.099 21.3988 189.835 21.167 190.394 20.7034C190.953 20.2399 191.233 19.4844 191.233 18.4371V16.0963C190.792 16.8518 190.208 17.3926 189.48 17.7189C188.751 18.0279 188.032 18.1824 187.321 18.1824C186.457 18.1824 185.661 18.0192 184.933 17.6931C184.222 17.3497 183.603 16.8776 183.079 16.2766C182.571 15.6757 182.173 14.9545 181.885 14.1132C181.597 13.272 181.453 12.3449 181.453 11.3318C181.453 10.3532 181.588 9.44312 181.86 8.6019C182.147 7.7606 182.545 7.03947 183.053 6.43853C183.578 5.8376 184.197 5.36544 184.908 5.02205C185.636 4.67866 186.44 4.50697 187.321 4.50697C188.185 4.50697 188.972 4.713 189.683 5.12507C190.411 5.51997 190.928 6.01787 191.233 6.61881V4.81602H194.713ZM203.472 19.0065C202.354 19.0065 201.364 18.8176 200.5 18.4399C199.653 18.045 198.934 17.5128 198.341 16.8432C197.765 16.1736 197.325 15.401 197.02 14.5253C196.732 13.6325 196.589 12.6881 196.589 11.6924C196.589 10.6622 196.749 9.70928 197.071 8.83368C197.393 7.95802 197.85 7.20258 198.443 6.5673C199.035 5.91486 199.747 5.40836 200.576 5.0478C201.406 4.68725 202.338 4.50697 203.37 4.50697C204.437 4.50697 205.386 4.70441 206.215 5.09931C207.062 5.49421 207.773 6.05221 208.349 6.77331C208.924 7.49445 209.348 8.36152 209.619 9.37452C209.907 10.3875 210.034 11.5035 210 12.7225H200.094C200.128 13.7527 200.449 14.6026 201.059 15.2722C201.669 15.9246 202.465 16.2509 203.447 16.2509C204.022 16.2509 204.539 16.1392 204.996 15.916C205.47 15.6757 205.885 15.255 206.241 14.6541H209.847C209.661 15.1692 209.399 15.6843 209.06 16.1993C208.739 16.7144 208.315 17.1866 207.79 17.6158C207.282 18.0279 206.673 18.3627 205.961 18.6202C205.25 18.8778 204.421 19.0065 203.472 19.0065ZM203.294 7.10813C202.939 7.10813 202.583 7.17681 202.227 7.31415C201.872 7.43437 201.541 7.63179 201.237 7.90653C200.949 8.16403 200.703 8.49026 200.5 8.88517C200.297 9.28007 200.17 9.74365 200.119 10.2759H206.444C206.427 9.69216 206.325 9.20281 206.139 8.80791C205.953 8.39582 205.707 8.06965 205.403 7.82927C205.114 7.57171 204.784 7.39141 204.412 7.28844C204.056 7.16821 203.684 7.10813 203.294 7.10813Z" fill="black"/>
<path d="M98.9739 0.00012207H112.385V2.99034H98.9739V7.63032H112.385V10.6206H98.9739V15.6988H112.385V18.689H98.9739V0.00012207Z" fill="black"/>
<path d="M6.03068 18.6889V3.86667H0.137817V0H16.3178V3.86667H10.3995V18.6889H6.03068Z" fill="#FE392A"/>
<path d="M29.6079 0H33.9514V18.6889H29.6079V11.0329H22.0387V18.6889H17.6952V0H22.0387V7.14047H29.6079V0Z" fill="#FE392A"/>
<path d="M36.8782 18.6889V0H51.0007V3.86667H41.2216V7.14047H50.4673V11.0329H41.2216V14.7965H51.0007V18.6889H36.8782Z" fill="#FE392A"/>
<path d="M56.4982 18.6889L63.4324 0H68.2078L75.1671 18.6889H70.4431L69.3251 15.3635H62.2132L61.121 18.6889H56.4982ZM65.7946 4.66578L63.407 11.7805H68.1571L65.7946 4.66578Z" fill="#FE392A"/>
<path d="M87.5471 18.6889L83.5598 11.6515H80.6131V18.6889H76.2698V0H83.3564C84.6264 0 85.7358 0.0859257 86.6838 0.257777C87.6491 0.429629 88.5211 0.730369 89.2998 1.16C90.0958 1.57245 90.6971 2.16534 91.1031 2.93867C91.5098 3.712 91.7131 4.65718 91.7131 5.77422C91.7131 8.26607 90.5104 9.9846 88.1064 10.9298L92.6524 18.6889H87.5471ZM83.4831 3.712H80.6131V7.93953H83.4831C84.6518 7.93953 85.5491 7.79347 86.1758 7.50133C86.8024 7.2092 87.1158 6.65067 87.1158 5.82578C87.1158 5.01807 86.7938 4.46814 86.1504 4.176C85.5238 3.86667 84.6351 3.712 83.4831 3.712Z" fill="#FE392A"/>
<path d="M98.1827 18.6889V3.86667H92.29V0H102.551V3.86667V18.6889H98.1827Z" fill="#FE392A"/>
</g>
<defs>
<clipPath id="clip0_168_3679">
<rect width="210" height="24" fill="white"/>
</clipPath>
</defs>
</svg>
