<svg width="140" height="140" viewBox="0 0 145 144" fill="none" xmlns="http://www.w3.org/2000/svg">
<path d="M70.3491 144C108.926 144 140.198 112.66 140.198 74C140.198 35.3401 108.926 4 70.3491 4C31.7725 4 0.5 35.3401 0.5 74C0.5 112.66 31.7725 144 70.3491 144Z" fill="white" fill-opacity="0.1"/>
<mask id="mask0_58_3879" style="mask-type:alpha" maskUnits="userSpaceOnUse" x="0" y="4" width="141" height="140">
<path d="M70.3491 144C108.926 144 140.198 112.66 140.198 74C140.198 35.3401 108.926 4 70.3491 4C31.7725 4 0.5 35.3401 0.5 74C0.5 112.66 31.7725 144 70.3491 144Z" fill="white"/>
</mask>
<g mask="url(#mask0_58_3879)">
<rect x="24.5" y="74" width="92" height="78" rx="12" fill="white"/>
<path d="M90.5 86H50.5C48.2917 86 46.5 87.8237 46.5 90.0714V91.4286H94.5V90.0714C94.5 87.8237 92.7083 86 90.5 86ZM46.5 119.929C46.5 122.176 48.2917 124 50.5 124H90.5C92.7083 124 94.5 122.176 94.5 119.929V94.1429H46.5V119.929ZM75.8333 100.25C75.8333 99.8768 76.1333 99.5714 76.5 99.5714H88.5C88.8667 99.5714 89.1667 99.8768 89.1667 100.25V101.607C89.1667 101.98 88.8667 102.286 88.5 102.286H76.5C76.1333 102.286 75.8333 101.98 75.8333 101.607V100.25ZM75.8333 105.679C75.8333 105.305 76.1333 105 76.5 105H88.5C88.8667 105 89.1667 105.305 89.1667 105.679V107.036C89.1667 107.409 88.8667 107.714 88.5 107.714H76.5C76.1333 107.714 75.8333 107.409 75.8333 107.036V105.679ZM75.8333 111.107C75.8333 110.734 76.1333 110.429 76.5 110.429H88.5C88.8667 110.429 89.1667 110.734 89.1667 111.107V112.464C89.1667 112.837 88.8667 113.143 88.5 113.143H76.5C76.1333 113.143 75.8333 112.837 75.8333 112.464V111.107ZM61.1667 99.5714C64.1083 99.5714 66.5 102.006 66.5 105C66.5 107.994 64.1083 110.429 61.1667 110.429C58.225 110.429 55.8333 107.994 55.8333 105C55.8333 102.006 58.225 99.5714 61.1667 99.5714ZM52.0917 116.892C52.7917 114.712 54.8 113.143 57.1667 113.143H57.85C58.875 113.575 59.9917 113.821 61.1667 113.821C62.3417 113.821 63.4667 113.575 64.4833 113.143H65.1667C67.5333 113.143 69.5417 114.712 70.2417 116.892C70.5083 117.732 69.8083 118.571 68.9417 118.571H53.3917C52.525 118.571 51.825 117.723 52.0917 116.892Z" fill="black" fill-opacity="0.4"/>
<rect x="24.5" y="36" width="92" height="34" rx="12" fill="#FE3D2D"/>
<rect x="62.5" y="50" width="36" height="6" rx="3" fill="white"/>
</g>
<rect x="37.5" y="46" width="14" height="14" rx="7" fill="white"/>
<path d="M120.5 46C132.65 46 142.5 36.1503 142.5 24C142.5 11.8497 132.65 2 120.5 2C108.35 2 98.5 11.8497 98.5 24C98.5 36.1503 108.35 46 120.5 46Z" fill="#FE3D2D" stroke="black" stroke-width="4"/>
<path fill-rule="evenodd" clip-rule="evenodd" d="M134.966 15.535C135.845 16.4137 135.845 17.8383 134.966 18.717L119.216 34.4663C118.337 35.3449 116.913 35.3449 116.034 34.4663L108.159 26.592C107.28 25.7134 107.28 24.2888 108.159 23.4101C109.038 22.5313 110.462 22.5313 111.341 23.4099L117.625 29.6934L131.784 15.535C132.663 14.6563 134.087 14.6563 134.966 15.535Z" fill="white"/>
</svg>
