<svg width="102" height="15" viewBox="0 0 102 15" fill="none" xmlns="http://www.w3.org/2000/svg">
<g filter="url(#filter0_b_18_5865)">
<path d="M0 7.5C0 3.35786 3.35786 0 7.5 0H94.5C98.6421 0 102 3.35786 102 7.5C102 11.6421 98.6421 15 94.5 15H7.5C3.35787 15 0 11.6421 0 7.5Z" fill="white" fill-opacity="0.2"/>
<path d="M6.56 11V5.24H7.28L10.284 9.74V5.24H11.004V11H10.284L7.28 6.496V11H6.56ZM14.1225 11V5.24H17.4825V5.952H14.8345V7.764H17.0025V8.476H14.8345V11H14.1225ZM21.6846 11V5.916H19.7206V5.24H24.3606V5.916H22.3966V11H21.6846ZM30.3569 11V5.24H32.1329C32.1915 5.24 32.2942 5.24133 32.4409 5.244C32.5875 5.24667 32.7275 5.25733 32.8609 5.276C33.3062 5.33467 33.6782 5.49733 33.9769 5.764C34.2782 6.028 34.5049 6.364 34.6569 6.772C34.8089 7.18 34.8849 7.62933 34.8849 8.12C34.8849 8.61067 34.8089 9.06 34.6569 9.468C34.5049 9.876 34.2782 10.2133 33.9769 10.48C33.6782 10.744 33.3062 10.9053 32.8609 10.964C32.7275 10.98 32.5862 10.9907 32.4369 10.996C32.2902 10.9987 32.1889 11 32.1329 11H30.3569ZM31.0889 10.32H32.1329C32.2342 10.32 32.3475 10.3173 32.4729 10.312C32.5982 10.304 32.7075 10.292 32.8009 10.276C33.1155 10.2173 33.3702 10.0853 33.5649 9.88C33.7595 9.67467 33.9022 9.41867 33.9929 9.112C34.0835 8.80533 34.1289 8.47467 34.1289 8.12C34.1289 7.75733 34.0822 7.42267 33.9889 7.116C33.8982 6.80933 33.7555 6.55467 33.5609 6.352C33.3662 6.14933 33.1129 6.02 32.8009 5.964C32.7075 5.94533 32.5969 5.93333 32.4689 5.928C32.3409 5.92267 32.2289 5.92 32.1329 5.92H31.0889V10.32ZM37.8822 11V5.24H38.5942V11H37.8822ZM44.1264 11.12C43.7317 11.12 43.3717 11.0507 43.0464 10.912C42.721 10.7733 42.441 10.5747 42.2064 10.316C41.9717 10.0547 41.7904 9.74 41.6624 9.372C41.537 9.00133 41.4744 8.584 41.4744 8.12C41.4744 7.50667 41.5837 6.976 41.8024 6.528C42.021 6.08 42.329 5.73467 42.7264 5.492C43.1237 5.24667 43.5904 5.124 44.1264 5.124C44.7717 5.124 45.2917 5.27467 45.6864 5.576C46.081 5.87467 46.353 6.284 46.5024 6.804L45.7824 6.952C45.6624 6.60267 45.465 6.324 45.1904 6.116C44.9157 5.908 44.573 5.804 44.1624 5.804C43.733 5.80133 43.3757 5.89733 43.0904 6.092C42.8077 6.284 42.5944 6.55467 42.4504 6.904C42.3064 7.25333 42.233 7.65867 42.2304 8.12C42.2277 8.57867 42.2984 8.98133 42.4424 9.328C42.5864 9.67467 42.801 9.94667 43.0864 10.144C43.3744 10.3387 43.733 10.4373 44.1624 10.44C44.533 10.4427 44.845 10.372 45.0984 10.228C45.3517 10.084 45.5477 9.876 45.6864 9.604C45.825 9.332 45.909 9.00533 45.9384 8.624H44.7144V8.036H46.6904C46.6984 8.08933 46.7024 8.15333 46.7024 8.228C46.705 8.3 46.7064 8.34933 46.7064 8.376C46.7064 8.90133 46.6077 9.372 46.4104 9.788C46.2157 10.2013 45.9264 10.5267 45.5424 10.764C45.161 11.0013 44.689 11.12 44.1264 11.12ZM49.5853 11V5.24H50.2973V11H49.5853ZM54.9815 11V5.916H53.0175V5.24H57.6575V5.916H55.6935V11H54.9815ZM59.7381 11L61.6661 5.24H62.6581L64.5861 11H63.8461L62.0421 5.656H62.2661L60.4781 11H59.7381ZM60.6661 9.652V8.984H63.6581V9.652H60.6661ZM67.3822 11V5.24H68.0942V10.324H70.7662V11H67.3822ZM76.2459 11L78.1739 5.24H79.1659L81.0939 11H80.3539L78.5499 5.656H78.7739L76.9859 11H76.2459ZM77.1739 9.652V8.984H80.1659V9.652H77.1739ZM83.81 11V5.24H86.086C86.142 5.24 86.2087 5.24267 86.286 5.248C86.3633 5.25067 86.438 5.25867 86.51 5.272C86.822 5.32 87.0833 5.42667 87.294 5.592C87.5073 5.75733 87.6673 5.96667 87.774 6.22C87.8807 6.47067 87.934 6.74933 87.934 7.056C87.934 7.50133 87.818 7.888 87.586 8.216C87.354 8.54133 87.014 8.74533 86.566 8.828L86.294 8.872H84.522V11H83.81ZM87.238 11L86.102 8.656L86.806 8.44L88.054 11H87.238ZM84.522 8.196H86.062C86.1127 8.196 86.17 8.19333 86.234 8.188C86.3007 8.18267 86.3633 8.17333 86.422 8.16C86.606 8.11733 86.7553 8.04 86.87 7.928C86.9873 7.81333 87.0727 7.68 87.126 7.528C87.1793 7.37333 87.206 7.216 87.206 7.056C87.206 6.896 87.1793 6.74 87.126 6.588C87.0727 6.43333 86.9873 6.29867 86.87 6.184C86.7553 6.06933 86.606 5.992 86.422 5.952C86.3633 5.936 86.3007 5.92667 86.234 5.924C86.17 5.91867 86.1127 5.916 86.062 5.916H84.522V8.196ZM92.419 11V5.916H90.455V5.24H95.095V5.916H93.131V11H92.419Z" fill="white"/>
</g>
<defs>
<filter id="filter0_b_18_5865" x="-4" y="-4" width="110" height="23" filterUnits="userSpaceOnUse" color-interpolation-filters="sRGB">
<feFlood flood-opacity="0" result="BackgroundImageFix"/>
<feGaussianBlur in="BackgroundImageFix" stdDeviation="2"/>
<feComposite in2="SourceAlpha" operator="in" result="effect1_backgroundBlur_18_5865"/>
<feBlend mode="normal" in="SourceGraphic" in2="effect1_backgroundBlur_18_5865" result="shape"/>
</filter>
</defs>
</svg>
