<svg width="44" height="12" viewBox="0 0 44 12" fill="none" xmlns="http://www.w3.org/2000/svg">
<path d="M3.5419 12V2.96276H0V0H10.5273V2.96276H6.96902V12H3.5419Z" fill="#FE3D2D"/>
<path d="M9.01228 12L13.3249 0H17.0799L21.3925 12H17.6703L17.0635 9.99724H13.2757L12.669 12H9.01228ZM15.1942 3.8069L14.0792 7.41517H16.2765L15.1942 3.8069Z" fill="#FE3D2D"/>
<path d="M22.0747 12V0H31.4869V2.96276H22.0747V4.48552H31.4869V7.46483H22.0747V9.02069H31.5525V12H22.0747Z" fill="#FE3D2D"/>
<path d="M31.7181 12L35.8831 5.97517L31.8493 0H35.8995L37.9165 3.01241L39.999 0H43.8688L39.835 5.84276L44 12H39.9498L37.7853 8.80552L35.588 12H31.7181Z" fill="#FE3D2D"/>
</svg>
